<svg width="46.709mm" height="28.422mm" version="1.1" viewBox="0 0 46.709 28.422" xml:space="preserve" xmlns="http://www.w3.org/2000/svg"><g transform="translate(47.674 -3.8847)"><g transform="translate(-47.767 3.4028)"/><g transform="translate(-48.466 -27.023)"><g transform="translate(-5.3419,-3.1389)"><path d="m51.492 35.102c0.07173 1.4979 0.67433 10.413 0.59248 11.91-0.09801 1.793-0.79229 12.938-1.109 14.706-2.679-0.38391-5.3803-0.6123-8.0858-0.68363-4.2745-0.1127-8.5496 0.16629-12.826 0.16711-4.175 7.99e-4 -8.3468-0.2636-12.522-0.25826-3.533 0.0045-7.0658 0.2024-10.577 0.59248 0.2043-1.7665-0.14246-12.777-0.068366-14.554 0.058667-1.4069 0.441-10.351 0.41777-11.758 3.0322-0.13094 6.0657-0.23222 9.0999-0.30384 4.5315-0.10695 9.0662-0.1477 13.597 0 4.3509 0.14185 9.1827-0.15022 13.536-0.12153 2.8131 0.01854 5.1409 0.52481 7.9453 0.30383z" fill="#4e4e4e" stroke="#000" stroke-linecap="round" stroke-linejoin="round" stroke-width="1.5" style="paint-order:normal"/></g></g></g></svg>
