<svg width="47.338mm" height="38.662mm" version="1.1" viewBox="0 0 47.338 38.662" xmlns="http://www.w3.org/2000/svg">
 <g transform="translate(-18.411 -21.998)">
  <path transform="translate(14.151 14.2)" d="m50.848 9.6588c-0.83736-0.75827-1.9832-1.1653-3.1113-1.1052-1.1281 0.060116-2.2242 0.58662-2.9762 1.4296-0.94596 1.0603-1.3108 2.5384-1.2949 3.9593 0.01592 1.4209 0.37601 2.8124 0.72063 4.191 1.7369 6.9478 3.1376 13.98 4.1956 21.063l0.93497 3.3698c0.11757 0.48046 0.09073 0.99528-0.07615 1.4609-0.16688 0.46563-0.47318 0.88029-0.86917 1.1767-0.55034 0.41191-1.2726 0.58608-1.9502 0.47028-0.67759-0.1158-1.301-0.51995-1.6833-1.0913-0.3823-0.5713-0.51812-1.3017-0.36672-1.9723 0.15139-0.67054 0.58787-1.2718 1.1786-1.6234-6.2385-1.7649-12.745-2.5777-19.226-2.4016-4.9669 0.13496-9.9179 0.84891-14.721 2.1228 0.5072 0.77783 0.59952 1.8101 0.23841 2.6656-0.36111 0.85549-1.1652 1.5094-2.0763 1.6885-0.91462 0.17981-1.9104-0.12425-2.5685-0.78433s-0.9593-1.6567-0.77682-2.5708l1.0477-2.2681c6.2275-1.9798 12.74-3.059 19.274-3.1938 6.4206-0.13248 12.859 0.64707 19.063 2.308l-2.6313-13.488-35.791 0.75869-2.3723-16.583c7.9742 1.762 16.191 2.4233 24.344 1.9593 4.5172-0.25707 9.0148-0.85806 13.441-1.796" fill="none" stroke="#000" stroke-linecap="round" stroke-linejoin="round" stroke-width="1.5" style="paint-order:normal"/>
 </g>
</svg>
