<svg width="55.257mm" height="51.994mm" version="1.1" viewBox="0 0 55.257 51.994" xml:space="preserve" xmlns="http://www.w3.org/2000/svg"><g transform="translate(51.395 1.813)"><path d="m3.303 23.612c0.41352-3.6326-0.43272-7.4748-1.9778-10.788-1.4067-3.0167-3.7874-5.5886-6.3665-7.6927-2.797-2.2819-6.0801-4.1263-9.5592-5.0887-4.9323-1.3644-10.349-1.937-15.333-0.77605-4.4759 1.0426-8.4824 3.8057-12.044 6.7099-1.6985 1.3849-3.2145 3.0725-4.2904 4.9818-2.4551 4.3567-4.9144 9.2687-4.6529 14.263 0.36296 6.9313 3.4185 14.274 8.4901 19.013 3.6981 3.4551 9.2286 4.6169 14.252 5.2357 4.2807 0.52737 8.9015 0.31978 12.865-1.3807 5.0988-2.1875 9.3889-6.3107 12.692-10.769 2.9632-3.9999 5.3625-8.7618 5.9255-13.708zm-7.5933 8.6579c-1.8568 3.263-4.6016 6.0445-7.579 8.3314-2.2922 1.7606-4.8929 3.3025-7.7019 3.9833-3.8628 0.9362-8.097 1.0526-11.924-0.02084-3.718-1.0429-7.3179-3.1407-9.9051-6.0073-2.1418-2.3731-3.5882-5.5111-4.1092-8.665-0.61537-3.7256 0.05851-7.6883 1.3046-11.253 1.2759-3.6496 3.3711-7.1391 6.1335-9.8441 2.5621-2.5088 5.7845-4.5665 9.2479-5.4958 3.2306-0.86683 6.7553-0.54333 10.034 0.11946 3.3132 0.6698 6.5988 1.9218 9.3905 3.8276 2.4654 1.6831 4.7738 3.8529 6.1683 6.4923 1.4071 2.6633 2.0309 5.8242 1.904 8.8337-0.1424 3.3773-1.2917 6.7602-2.9636 9.6981z" fill="#afafaf" stroke="#000" stroke-linecap="round" stroke-linejoin="round" stroke-width=".90852" style="paint-order:normal"/></g></svg>
