<svg width="56.014mm" height="51.91mm" version="1.1" viewBox="0 0 56.014 51.91" xml:space="preserve" xmlns="http://www.w3.org/2000/svg"><g transform="translate(51.812 2.2842)"><path d="m-44.731 6.439c-2.6415 2.5396-4.2129 6.104-5.3516 9.5738-1.0683 3.2553-1.3058 6.7693-1.2721 10.193 0.0273 2.7679 0.23324 5.6197 1.1909 8.2195 1.3001 3.5295 3.1398 7.1189 6.0164 9.5639 2.9848 2.5369 7.0019 3.7686 10.842 4.5981 3.9835 0.86043 8.1607 0.59445 12.227 0.30084 2.1863-0.15787 4.4368-0.31999 6.4812-1.1045 4.6749-1.7939 9.6989-4.0248 12.676-8.0252 4.1528-5.5811 6.1376-13.148 5.5751-20.062-0.44107-5.4217-3.1405-10.834-6.858-14.832-2.7669-2.9759-6.711-4.9968-10.68-5.9377-5.6928-1.3494-11.885-0.75704-17.544 0.72642-4.8207 1.2638-9.722 3.3441-13.303 6.7865zm11.369-1.8322c3.9184-1.5648 8.2475-2.3232 12.47-2.2326 2.9268 0.062798 5.9154 0.68662 8.5673 1.9166 3.3565 1.5568 6.7832 3.6345 8.8294 6.6988 2.2107 3.3106 2.9919 7.5652 2.9971 11.536 0.004602 3.5032-0.84406 7.1544-2.6173 10.184-1.9033 3.252-4.9389 5.885-8.1772 7.8398-3.3054 1.9953-7.1642 3.1752-11 3.6767-4.5234 0.59128-9.3443 0.61305-13.66-0.85415-2.3764-0.80784-4.6291-2.2854-6.2313-4.2047-2.4549-2.941-3.9596-6.7417-4.6003-10.507-0.58601-3.4441-0.16251-7.0875 0.79496-10.449 0.82431-2.8938 2.142-5.7792 4.1628-8.0207 2.2589-2.5056 5.3212-4.3291 8.4646-5.5845z" fill="#afafaf" stroke="#000" stroke-linecap="round" stroke-linejoin="round" stroke-width=".90852" style="paint-order:normal"/></g></svg>
