<svg width="25.669mm" height="21.025mm" version="1.1" viewBox="0 0 25.669 21.025" xml:space="preserve" xmlns="http://www.w3.org/2000/svg"><g transform="matrix(.98772 0 0 1.8877 46.172 -8.5737)"><g transform="translate(-47.767,3.4028)"/></g><g transform="matrix(.42973 0 0 .42973 .00022563 1.5337e-5)"><g transform="translate(-14.767,-15.156)"><path d="m29.049 46.878 4.7675 16.418c4.1704-0.84611 8.4278-1.2625 12.683-1.2405 4.1002 0.02121 8.1981 0.44935 12.214 1.2761l4.4845-17.03" fill="#eff2ac" stroke="#000" stroke-linecap="round" stroke-linejoin="round" stroke-width="1.5" style="paint-order:normal"/></g><path d="m44.74 33.24-11.469-1.2734c-4.9265-0.41575-9.9019-0.249-14.79 0.49568-2.0274 0.30889-4.0514 0.71785-6.1022 0.73308-1.9755 0.01467-3.9494-0.34025-5.8111-1.0013-0.98165-0.34857-1.9382-0.78458-2.796-1.3757-0.85775-0.5911-1.6161-1.3426-2.1381-2.2441-0.59659-1.0304-0.86768-2.2303-0.88337-3.4208s0.21597-2.3745 0.57217-3.5106c0.61414-1.9589 1.6146-3.8144 3.036-5.2956 1.6267-1.6949 3.7618-2.8534 6.0144-3.5204 1.9235-0.56955 4.0079-0.79003 5.9297-0.21485 0.9705 0.29047 1.8808 0.78036 2.6579 1.4303-0.44236-0.60876-0.74737-1.3167-0.88594-2.0564-0.20875-1.1143-0.03827-2.2757 0.33859-3.3449 0.71086-2.0168 2.1451-3.7372 3.8887-4.9751 1.7436-1.238 3.7856-2.0136 5.8774-2.4577 5.1939-1.1028 10.743-0.16533 15.436 2.3182 2.1784 1.1527 4.246 2.6957 5.441 4.8512 1.1048 1.9926 1.3631 4.4753 0.52626 6.5944-0.50266 1.2728-1.3847 2.393-2.5042 3.1802l2.5979-1.2006c1.6419-0.15544 3.3281 0.1918 4.775 0.98336 1.966 1.0755 3.454 2.9629 4.1216 5.102 0.55717 1.7854 0.55345 3.7507-0.06695 5.5151s-1.8638 3.3131-3.4827 4.2497c-1.7029 0.98521-3.7985 1.2682-5.7017 0.77003z" fill="#acc8f2" stroke="#000" stroke-linecap="round" stroke-linejoin="round" stroke-width="1.5" style="paint-order:normal"/></g><g><path d="m7.0078 7.4497c-0.38093-0.074616-1.0325-0.15964-1.5385-0.072599-0.28845 0.04962-0.61315 0.1181-0.81283 0.33209-0.16551 0.17736-0.20824 0.44933-0.22806 0.69111-0.074406 0.90725 0.32064 1.7935 0.42182 2.6981 0.066681 0.59617 0.056502 1.3296 0.12172 1.7956 0.16922 0.08231 0.24401 0.04741 0.37868-0.0015 0.05466-0.46899-0.00651-1.1879-0.060582-1.7787-0.035579-0.38874-0.11592-0.7755-0.17326-1.1582-0.073779-0.38129-0.18543-0.75057-0.21446-1.1361-0.014958-0.19861-0.050432-0.41457 0.021415-0.59741 0.036663-0.0933 0.10739-0.17362 0.19419-0.21713 0.55523-0.27836 1.4995-0.041787 1.856-0.16431 0.42035 0.030849 0.056641-0.39518 0.033857-0.39095z"/><path d="m4.9478 10.154c0.26084-4.59e-4 0.51302-0.04812 0.74051-0.07788 0.23452-0.038878 0.56664-0.12925 0.79596-0.18586 0.64053-0.25172 0.4239-0.63127-0.15246-0.45158-0.27422 0.064168-0.51331 0.14193-0.7745 0.19232-0.23251 0.044854-0.56436 0.028888-0.70365 0.097546-0.22422 0.37853 0.06141 0.37366 0.094129 0.42545z"/><path d="m8.0934 9.9493c-0.18221 0.49864-0.13939 1.0011-0.13737 1.5048 0.00113 0.28289 0.016352 0.57284 0.083921 0.8445 0.12206 0.06458 0.25438 0.02543 0.36117 0.0063 0.00564-0.2797-0.070801-0.5649-0.083486-0.84898-0.021856-0.4895 0.10704-1.0205 0.012908-1.4699 0.00259-0.016769-0.23455-0.053485-0.23715-0.036717z"/><path d="m10.302 9.7214c-0.4848-0.049441-0.8805 0.17774-1.1963 0.46663-0.23594 0.2158-0.34899 0.54896-0.4267 0.85912-0.060554 0.24166-0.1104 0.51397-0.022456 0.74706 0.089762 0.23792 0.28941 0.45209 0.52088 0.55735 0.25338 0.11522 0.56068 0.07839 0.83455 0.02867 0.16459-0.02988 0.36094-0.06027 0.46349-0.19244 0.0721-0.09292 0.161-0.38842 0.05009-0.34927-0.43793 0.15458-0.63363 0.24879-0.95375 0.1955-0.19749-0.03287-0.41335-0.13379-0.5176-0.30471-0.10075-0.16517-0.069104-0.38942-0.032891-0.57948 0.051441-0.26996 0.14165-0.56468 0.34615-0.74827 0.27145-0.2437 0.70041-0.40312 1.0369-0.35014 0.11377 0.01792 0.01229-0.31835-0.10229-0.33004z"/><path d="m12.494 10.566c0.11514-0.18477 0.08174-0.40218 0.01683-0.58677-0.05406-0.15372-0.17027-0.30099-0.31677-0.37231-0.25796-0.12558-0.59997-0.15585-0.86-0.03464-0.21689 0.1011-0.34411 0.34831-0.43909 0.56794-0.14436 0.33384-0.16811 0.75064-0.17188 1.0775-0.01622 0.55105 0.23485 0.92268 0.61909 1.0772 0.43294 0.17413 0.95231-0.14655 1.3437-0.39277 0.12052-0.08113 0.22993-0.17562 0.32049-0.25728 0.01536-0.16061-0.06127-0.2462-0.16107-0.30066-0.2196 0.01343-0.36789 0.15432-0.47177 0.21926-0.30748 0.19114-0.76008 0.42589-1.0623 0.22649-0.2753-0.18166-0.23709-0.64432-0.1909-0.97091 0.04692-0.33178 0.14166-0.78881 0.45984-0.8939 0.20113-0.06643 0.5663 0.069007 0.57006 0.28079 7e-3 0.39604-0.69267 0.51027-1.0467 0.5626-0.08225 0.05171-0.13264 0.40153-0.0057 0.38612 0.33916-0.04116 1.1911-0.28273 1.3962-0.5887z"/><path d="m13.755 10.184c0.11362-0.18297 0.2597-0.26336 0.43083-0.29936 0.1695-0.035654 0.37032-0.00293 0.51002 0.099457 0.17407 0.12758 0.27869 0.35507 0.3095 0.56868 0.04764 0.3303 0.01907 0.73664-0.21059 0.97877-0.19906 0.20986-0.54854 0.23975-0.83751 0.22705-0.17705-0.0077-0.31852-0.06023-0.49897-0.18359-0.09233 0.06715-0.13835 0.27015-0.17519 0.36285 0.06025 0.16474 0.259 0.17115 0.40666 0.20876 0.24612 0.06268 0.51132 0.06124 0.76169 0.01863 0.13158-0.02239 0.25926-0.07437 0.37453-0.14167 0.11092-0.06476 0.2097-0.15161 0.29586-0.24687 0.10354-0.11447 0.20092-0.23831 0.2596-0.38342 0.05315-0.13916 0.08033-0.28608 0.08912-0.43326 0.0092-0.15434 2e-3 -0.31308-0.03877-0.4622-0.07258-0.26519-0.16139-0.55157-0.35926-0.74247-0.13276-0.12809-0.3275-0.17841-0.5065-0.22306-0.13327-0.03324-0.2742-0.043453-0.41094-0.030471-0.07995 0.00759-0.15783 0.033439-0.23262 0.062707-0.03832 0.015-0.0771 0.031769-0.10936 0.057324-0.11681 0.092515-0.27257 0.14749-0.29271 0.33787-0.0066 0.018914 0.05858 0.49153 0.06959 0.47481z"/><path d="m7.8965 11.907c-0.11287 0.18176-0.25798 0.26162-0.42798 0.29738-0.16838 0.03541-0.36787 0.0029-0.50664-0.0988-0.17292-0.12674-0.27685-0.35273-0.30745-0.56492-0.047324-0.32812-0.018944-0.73177 0.2092-0.9723 0.19774-0.20847 0.54492-0.23816 0.83198-0.22555 0.17588 0.0076 0.31642 0.05983 0.49567 0.18237 0.091719-0.0667 0.13743-0.26836 0.17403-0.36045-0.059851-0.16365-0.25729-0.17002-0.40397-0.20738-0.24449-0.062269-0.50794-0.060835-0.75666-0.018505-0.13071 0.022235-0.25755 0.073873-0.37205 0.14073-0.11019 0.06433-0.20832 0.15061-0.29391 0.24524-0.10285 0.11371-0.19959 0.23673-0.25788 0.38089-0.052799 0.13824-0.079799 0.28418-0.088531 0.43039-0.00914 0.15332-0.00198 0.31101 0.038514 0.45915 0.0721 0.26344 0.16033 0.54792 0.35688 0.73756 0.13189 0.12724 0.32534 0.17723 0.50315 0.22158 0.13239 0.03302 0.27239 0.04316 0.40822 0.03027 0.079421-0.0076 0.15679-0.03322 0.23108-0.06229 0.038067-0.0149 0.07659-0.03156 0.10864-0.05694 0.11604-0.09191 0.27077-0.14652 0.29078-0.33564 0.00655-0.01879-0.058193-0.48828-0.069129-0.47167z"/><path d="m17.279 9.9382c-0.15-0.12569-0.3695-0.17229-0.56482-0.16016-0.17485 0.010861-0.33346 0.070373-0.48398 0.20484-0.1255 0.11361-0.23056 0.2453-0.32305 0.38645-0.1103 0.18158-0.19612 0.37761-0.26162 0.57942-0.03406 0.13343-0.06684 0.26966-0.07091 0.40806-2e-3 0.06729-0.0045 0.12881 0.01003 0.19083 0.04564 0.19487 0.10133 0.40504 0.23802 0.55122 0.16118 0.17236 0.37165 0.25534 0.62969 0.32355 0.23074 0.03699 0.47724-0.02997 0.68664-0.13235 0.24204-0.11833 0.45518-0.31059 0.60817-0.53236 0.0758-0.10988 0.12548-0.2426 0.1396-0.37534 0.03775-0.35511 0.02556-0.75153-0.154-1.0602-0.11768-0.2023-0.24618-0.38896-0.55408-0.43123-0.11338-0.01557-0.2107 0.27679-0.01284 0.37585 0.20352 0.25973 0.32512 0.42961 0.35189 0.68487 0.02439 0.23259-0.05508 0.52184-0.1842 0.67698-0.1309 0.16968-0.40232 0.33463-0.64875 0.37043-0.17238 0.02504-0.38927 0.0074-0.50878-0.1193-0.18649-0.19776-0.20222-0.51447-0.13932-0.80347 0.07633-0.34334 0.21586-0.6663 0.49572-0.82055 0.18343-0.1011 0.35506-0.09996 0.62821 0.01249 0.23222-0.04501 0.17094-0.10539 0.18471-0.19349 0.0078-0.04999-0.02754-0.10403-0.06633-0.13653z"/><path d="m19.748 10.167c-0.15-0.12569-0.3695-0.17229-0.56482-0.16016-0.17485 0.01086-0.33346 0.07037-0.48398 0.20484-0.1255 0.11361-0.23056 0.2453-0.32305 0.38645-0.1103 0.18158-0.19612 0.37761-0.26162 0.57942-0.03406 0.13342-0.06685 0.26966-0.07091 0.40806-2e-3 0.06729-0.0045 0.12881 0.01003 0.19083 0.04564 0.19487 0.10132 0.40504 0.23802 0.55122 0.16118 0.17236 0.37165 0.25534 0.62969 0.32355 0.23074 0.03699 0.47724-0.02997 0.68664-0.13235 0.24204-0.11833 0.45518-0.31059 0.60817-0.53236 0.0758-0.10988 0.12548-0.2426 0.1396-0.37534 0.03775-0.35511 0.02556-0.75153-0.154-1.0602-0.11768-0.2023-0.24618-0.38896-0.55408-0.43123-0.11338-0.01555-0.2107 0.27679-0.01284 0.37584 0.20352 0.25973 0.32512 0.42961 0.35189 0.68488 0.02439 0.23259-0.05508 0.52184-0.1842 0.67698-0.1309 0.16968-0.40232 0.33463-0.64875 0.37043-0.17238 0.02504-0.38927 0.0074-0.50878-0.1193-0.18649-0.19776-0.20222-0.51447-0.13932-0.80348 0.07633-0.34334 0.21586-0.6663 0.49572-0.82055 0.18343-0.1011 0.35506-0.09996 0.62821 0.01249 0.23222-0.04502 0.17094-0.10539 0.18471-0.19349 0.0078-0.04999-0.02754-0.10403-0.06633-0.13653z"/><path d="m20.935 8.6952-0.45178 4.0672 0.3699 0.05341 0.45665-4.0897c-0.0952-0.042919-0.27498-0.010634-0.37478-0.030925z"/><path d="m13.365 7.6239-0.08106 4.3233 0.37322 0.02052 0.08388-4.3474c-0.0987-0.035981-0.27481 0.01533-0.37604 0.00361z"/><path d="m22.165 10.413c-0.23028 0.06192-0.44634 0.17555-0.6683 0.26633-0.22954 0.09388-0.68604 0.28782-0.68604 0.28782l0.11249 0.36529s0.53221-0.19594 0.78227-0.3279c0.26623-0.14049 0.57859-0.33755 0.75824-0.49052 0.01474-0.0096-0.20817-0.16493-0.29866-0.10099z"/><path d="m21.159 11.25s0.25696 0.58377 0.37788 0.8805c0.10606 0.26026 0.19714 0.63231 0.30478 0.78894 0.12168 0.03179 0.32599 0.06735 0.40714 0.03154-0.09823-0.27638-0.23434-0.6766-0.3661-1.0063-0.11784-0.2949-0.3792-0.86825-0.3792-0.86825z"/></g></svg>
