<svg width="25.669mm" height="21.025mm" version="1.1" viewBox="0 0 25.669 21.025" xml:space="preserve" xmlns="http://www.w3.org/2000/svg"><g transform="matrix(.98772 0 0 1.8877 46.172 -8.5737)"><g transform="translate(-47.767,3.4028)"/></g><g transform="matrix(.42973 0 0 .42973 .00022563 1.5337e-5)"><g transform="translate(-14.767,-15.156)"><path d="m29.049 46.878 4.7675 16.418c4.1704-0.84611 8.4278-1.2625 12.683-1.2405 4.1002 0.02121 8.1981 0.44935 12.214 1.2761l4.4845-17.03" fill="#f2b4ac" stroke="#000" stroke-linecap="round" stroke-linejoin="round" stroke-width="1.5" style="paint-order:normal"/></g><path d="m44.74 33.24-11.469-1.2734c-4.9265-0.41575-9.9019-0.249-14.79 0.49568-2.0274 0.30889-4.0514 0.71785-6.1022 0.73308-2.9398-0.22886-5.3044-0.29346-7.4285-1.6843-1.3559-0.88781-2.2317-2.4315-2.8813-3.9163-0.68022-1.5548-1.1174-3.3089-0.9642-4.999 0.18767-2.0704 0.85947-4.2781 2.2631-5.8117 1.7347-1.8954 4.3512-3.678 6.9076-3.4205 1.112 0.11201 2.6475 2.0572 2.6475 2.0572s-0.78411-1.5044-0.72702-2.3095c0.18701-2.6371 1.4885-5.354 3.4253-7.1535 2.7081-2.516 6.6554-3.6104 10.327-4.042 5.2369-0.61566 10.856 0.032808 15.666 2.1923 1.9879 0.89238 3.9067 2.3388 4.9792 4.2355 0.76384 1.3508 1.3757 3.3629 0.75715 4.5934-3.3603 4.1827-1.9703 0.81568 0.86121-0.40629 2.5216-1.0882 7.0846 1.5869 8.9757 4.3153 1.9824 2.8601 1.9069 7.0568 0.93355 10.398-0.59077 2.0279-2.1087 3.8498-3.8675 5.0193-1.4164 0.94185-3.0289 1.8069-4.9321 1.3088z" fill="#f2efac" stroke="#000" stroke-linecap="round" stroke-linejoin="round" stroke-width="1.5" style="paint-order:normal"/></g><g><path d="m4.0068 8.811c0.56493-0.089436 1.4009-0.30517 1.962-0.41448 0.085286-0.013974 0.69156-0.15143 0.77676-0.16595 0.41409-0.17057 0.32861-0.28893-0.38169-0.22396-0.12424 0.019993-0.89069 0.1505-1.0124 0.17421-0.38129 0.074319-0.75931 0.16732-1.1356 0.26332-0.081228 0.022642-0.68294 0.18738-0.76458 0.20849-0.16594 0.23726-0.24478 0.26496 0.55546 0.15836z"/><path d="m5.2893 9.6433c0.15749 0.83959 0.1948 1.4411 0.2939 2.2579 0.026366 0.23019 0.36273 0.1708 0.31953-0.05432-0.045685-0.80815-0.1033-1.1944-0.1642-1.9888-0.055795-0.39055-0.25257-1.2136-0.39945-1.5517-0.51982-0.38032-0.071155 1.1198-0.049785 1.3369z"/><path d="m4.6187 12.414c0.47199-0.0566 0.6925-0.09773 1.0388-0.14624 0.18676-0.02616 0.37377-0.05059 0.56034-0.07811 0.50591-0.07462 1.0095-0.14594 1.5159-0.23589 0.25225-0.09333 0.22678-0.20142-0.01436-0.31278-0.091737-0.02197-0.18479-0.01074-0.27698-0.0054-0.44506 0.02569-0.87989 0.12322-1.3253 0.17984-0.18614 0.03472-0.36368 0.07391-0.54672 0.10415-0.30628 0.0506-0.61571 0.08046-0.92229 0.12922-0.16999 0.02704-0.31728 0.01587-0.50837 0.09054-0.00862 0.34941 0.29622 0.29657 0.47894 0.27466z"/><path d="m7.9234 9.881c-0.04705 0.18787 0.00233 0.39742 0.025154 0.59443 0.042008 0.36254 0.079115 0.4929 0.13291 0.87826 0.031923 0.22867-0.043097 0.39926 0.070915 0.54896 1.08e-5 0.0082 0.11545 0.0079 0.11543-2.84e-4 0.13351-0.13193 0.12512-0.3278 0.12993-0.47163-0.017412-0.35979-0.068086-0.63198-0.12759-0.9814-0.043204-0.21275-0.10221-0.38441-0.1627-0.5621 4.423e-4 -0.013013-0.18361-0.01927-0.18405-0.0062502z"/><path d="m8.6308 9.9609c0.53002-0.25441 0.61924-0.019818 0.72898 0.20778 0.13671 0.28355 0.088949 0.4591 0.080941 0.69081-0.010518 0.30434-0.12951 0.75658 0.11518 0.92582 0.21975-0.15452 0.18924-0.57816 0.21541-0.87855 0.02184-0.25061 0.039536-0.51802-0.050225-0.75302-0.089239-0.23363-0.23566-0.4846-0.46186-0.59129-0.20816-0.098186-0.48356-0.068253-0.69023 0.018099-0.22611 0.13849-0.45322 0.29761-0.53962 0.56125 0.15361 0.33041 0.32623 0.02536 0.60142-0.1809z"/><path d="m10.957 9.2703c-0.2455-0.13178-0.42397-0.10584-0.65136-0.044759-0.34961 0.22987-0.43307 0.4427-0.41803 0.80039 0.047046 0.23503 0.1973 0.38835 0.43244 0.44669 0.05293 0.01313 0.10907 0.0011 0.16361 0.0016 0.1412-0.02225 0.27385-0.07557 0.40648-0.12633 0.2827-0.1073 0.33607 0.03188 0.40352 0.15988 0.08895 0.16878-0.0027 0.41324-0.12685 0.55812-0.13579 0.1585-0.3459 0.22252-0.58205 0.2308-0.08507 0.01812-0.33652 0.03626-0.41797 0.06678-0.02229 0.0045-0.22709 0.24684 0.0469 0.29868 0.55422 0.03417 0.88602-0.02314 1.1741-0.30717 0.21252-0.20957 0.27-0.56617 0.23875-0.863-0.01518-0.14416-0.11069-0.31307-0.2007-0.3858-0.11563-0.09342-0.22246-0.13389-0.36679-0.13449-0.09818 0.01117-0.11696 0.0098-0.21244 0.03461-0.40214 0.10933-0.50585 0.31518-0.63945-0.078406-2.67e-4 -0.060362-0.0055-0.10807 0.01283-0.16642 0.27667-0.38816 0.59749-0.16645 0.7453-0.34229z"/><path d="m11.859 8.0146c-0.0063 0.56984-0.0027-0.060107 0.0039 0.47966 3e-3 0.24841-0.0087 0.20576 0.0088 0.45033 0.0054 0.075322 0.03043 0.28667 0.0397 0.36728 0.03347 0.23891 0.01816 0.49024 0.05234 0.73127-0.0063 0.25729 0.0159 0.50142 0.04134 0.75697 0.0048 0.03857-0.01923 0.89984 0.16657 0.73215 0.15382-0.13882 0.15723-0.49926 0.14298-0.74616-0.02634-0.24602-0.01851-0.47999-0.03161-0.7271-0.0024-0.24331-0.03693-0.49822-0.041-0.7415 0.0073-0.28628-0.01399-0.56564-0.03781-0.84165-0.0047-0.15817 0.04119-1.3224-0.11856-1.3307-0.28478-0.014832-0.25448 5.121e-4 -0.22666 0.86946z"/><path d="m12.317 9.1207c0.37612-0.14372 0.8733-0.12859 0.80656-0.42508-0.03112-0.13824-0.27654-0.031647-0.42471-0.017936-0.09843 0.018879-0.1977 0.033818-0.29529 0.056633-0.1702 0.039788-0.4162 0.11473-0.58291 0.17503-0.16392 0.047898-0.31999 0.13941-0.45742 0.2205-0.08588 0.15172-0.02595 0.27145 0.06106 0.25731 0.33905-0.055132 0.61084-0.16921 0.8927-0.26646z"/><path d="m14.473 9.4767c-0.11743-0.11796-0.28259-0.1838-0.44644-0.20592-0.03974-0.00537-0.08004-0.00495-0.12006-0.00742-0.25034 0.00992-0.45935 0.099501-0.67181 0.22441-0.1508 0.10577-0.28464 0.2358-0.39409 0.38413-0.0708 0.09596-0.10183 0.15585-0.1618 0.25895-0.0995 0.20809-0.18344 0.55149-0.12418 0.78557 0.09816 0.33132 0.44477 0.39172 0.7219 0.45853 0.18322 0.04417 0.42435-0.02522 0.56298-0.05237 0.06562-0.0206 0.1333-0.04031 0.19128-0.07731 0.1153-0.07357 0.18564-0.18428 0.26546-0.2898 0.0082-0.0056-0.07109-0.12072-0.07923-0.11512-0.01768 0.0021-0.05605-0.04113-0.08898-0.04343-0.15216-0.01061-0.2878 0.1021-0.4351 0.14168-0.09414 0.02529-0.12768 0.03972-0.28599 0.06102-0.51562-0.05396-0.59362-0.23176-0.39698-0.66734 0.07535-0.13422 0.05191-0.09813 0.1369-0.2268 0.03582-0.05423 0.09353-0.14286 0.13893-0.19236 0.04838-0.05275 0.09692-0.08387 0.15426-0.12588 0.14895-0.096705 0.3128-0.18769 0.495-0.18832 0.07528 0.00568 0.08919 0.0033 0.16338 0.02317 0.09743 0.026129 0.18719 0.077918 0.28793 0.091727 0.01677 0.00614 0.1034-0.23105 0.08663-0.23718z"/><path d="m14.306 9.5013c-0.16744 0.24343-0.14305 0.56138-0.17275 0.84825-0.02056 0.2924-0.06291 0.58454-0.05762 0.87808 0.06137 0.23162 0.12379 0.21046 0.22199 0.19751 0.06119-0.0081 0.08762-0.13452 0.10168-0.15476 0.03723-0.285 0.07703-0.5697 0.10245-0.85607 0.02393-0.28376 0.03629-0.57038 0.0166-0.85479 0.0041-0.01088-0.0679-0.1042-0.07202-0.093316z"/><path d="m16.147 9.406c-0.15037-0.10478-0.34153-0.15051-0.52343-0.11865-0.04324 0.0076-0.0846 0.023454-0.12689 0.035177-0.25812 0.10983-0.50434 0.31717-0.64522 0.54532-0.11236 0.18747-0.13002 0.37028-0.17385 0.5846-0.03295 0.18607 0.03208 0.41062 0.08874 0.58838 0.05938 0.15529 0.15861 0.26491 0.30827 0.34213 0.06724 0.03469 0.16466 0.04256 0.23672 0.05324 0.15131 0.01037 0.49089-0.03748 0.63763-0.07726 0.05622-0.01525 0.11985-0.02028 0.16531-0.05671 0.05194-0.04161 0.07457-0.11026 0.11186-0.1654 0.01455-0.12768-0.069-0.12315-0.069-0.12315s-0.0065-0.14782-0.19538-0.03486c-0.04945 0.0014-0.28127 0.06546-0.3287 0.07955-0.51833 0.13657-0.54343-0.19111-0.59813-0.43061-0.08297-0.3633 0.21612-0.78748 0.53379-0.9823 0.14885-0.091288 0.38934-0.029353 0.52365-0.01426 0.01593 0.00385 0.07056-0.22141 0.05463-0.22527z"/><path d="m16.064 9.5616c-0.10405 0.21644-0.02065 0.4661-0.0181 0.69925 0.0021 0.19467 0.02228 0.38878 0.02786 0.58339 0.0063 0.1537 0.01095 0.30772 0.0094 0.46158-0.0028 0.18121-0.0031 0.36245-0.0035 0.54369 0.0056 0.16281 0.0044 0.30398-0.04078 0.46116-0.04635 0.12497-0.13741 0.22129-0.2297 0.31401-0.08085 0.08427-0.19668 0.12207-0.30668 0.14565-0.1235 0.02708-0.24442 0.01515-0.3613-0.01429-0.08245-0.02077-0.1561-0.06851-0.22924-0.11186-0.09801-0.05809-0.16192-0.12715-0.27897-0.1975-0.07471-0.0449-0.11845-0.10573-0.19814-0.14105-0.0072-0.01233-0.18155 0.09057-0.17428 0.1029 0.01928 0.0898-0.0018 0.13516 0.04029 0.21678 0.09085 0.17602 0.27668 0.30686 0.43262 0.40557 0.10687 0.03223 0.2116 0.07272 0.32062 0.0967 0.20274 0.04459 0.45097 0.02299 0.63896-0.04412 0.14659-0.04864 0.28612-0.11761 0.39977-0.22774 0.16524-0.17388 0.23017-0.26607 0.29237-0.46918 0.04355-0.14761 0.02675-0.36222 0.02787-0.51465-0.0016-0.18089-0.0066-0.36164-0.01545-0.54232-0.0032-0.15633-0.0088-0.3123-0.01638-0.46843-0.01104-0.18875-0.01385-0.3781-0.01519-0.56712-0.0089-0.2352 0.04907-0.63856-0.0074-0.86887 0.0019-0.010505-0.25186-0.15475-0.28302 0.013607z"/><path d="m16.937 9.6877c-0.01524 0.23963-0.03366 0.37735-0.05889 0.6195-0.01427 0.29064-0.04256 0.47999-0.08723 0.76692-0.0123 0.11722-0.03492 0.24005-0.01434 0.35807 0.0037 0.02104 0.01661 0.05576 0.02355 0.07577 0.21255 0.0037 0.25776 0.03742 0.22498-0.08386 0.09918-0.28859 0.10264-0.61737 0.12326-0.89287 0.25452-0.53449 0.73515-0.56203 1.2301-0.53211 0.03565-0.01401 0.05711-0.05108 0.08567-0.07661 0.0057 4.6e-4 0.01213-0.07989 0.0064-0.08035-0.03215-0.04424-0.05283-0.099759-0.09647-0.13274-0.06927-0.052358-0.21204-0.047586-0.28883-0.051845-0.05109 0.00421-0.10258 0.00504-0.15329 0.012593-0.23068 0.034261-0.44626 0.076686-0.64145 0.19934-0.44902 0.34924-0.45747 0.70324-0.45392 1.2242-5.57e-4 0.09591-0.0082 0.1916-0.02496 0.28614-2e-3 0.01496-1e-3 0.03038-0.0047 0.04502-0.02044 0.08236-0.28326 0.02133 0.22016 0.03036 0.0028 0.0084 0.0019 0.01939 0.0085 0.0254 0.0032 0.0029 0.0069-0.0059 0.0086-0.0098 0.0058-0.01259 0.0096-0.02599 0.01368-0.0392 0.10577-0.35536 0.11882-0.75126 0.1238-1.0731 0.01633-0.24249 0.06044-0.44927 0.01107-0.69022-0.11372-0.022176-0.13001-0.00538-0.25573 0.019384z"/><path d="m19.81 10.173c-0.09954-0.12523-0.24611-0.22929-0.40795-0.25178-0.03071-0.0043-0.06194-0.0031-0.0929-0.0047-0.20469 0.0178-0.39265 0.10825-0.5675 0.21078-0.19517 0.12727-0.38429 0.27422-0.52405 0.46308-0.03485 0.04709-0.06355 0.09843-0.09532 0.14764-0.11919 0.21688-0.19575 0.46638-0.13101 0.71335 0.0093 0.03539 0.02476 0.06885 0.03715 0.10328 0.06838 0.1417 0.17267 0.23931 0.31356 0.31132 0.05382 0.02751 0.14792 0.03822 0.20472 0.0477 0.23919 0.01847 0.46986-0.04608 0.68866-0.13636 0.132-0.06136 0.26676-0.12843 0.36872-0.23534 0.04903-0.05142 0.07817-0.09957 0.11743-0.15774 0.01232-0.02713 0.02969-0.05249 0.03694-0.08138 0.02097-0.08354 0.0043-0.1792-0.01073-0.26174 0.0012-4e-3 -0.05587-0.02104-0.05707-0.017-0.01518 0.01652-0.08145 0.08951-0.09896 0.1053-0.01689 0.01524-0.03711 0.02651-0.05389 0.04188-0.01417 0.01298-0.02573 0.02855-0.03858 0.04281-0.12144 0.11354-0.28168 0.17413-0.43112 0.24196-0.17294 0.06263-0.34999 0.12874-0.53718 0.11441-0.02054-2e-3 -0.04139-0.0019-0.06163-6e-3 -0.01518-3e-3 -0.03309-0.02621-0.04393-0.01515-0.0098 0.01 0.03816 0.01894 0.02947 0.0299-0.01214 0.01532-0.08787-0.08568-0.09323-0.09518-0.0065-0.01629-0.01533-0.03185-0.01964-0.04887-0.04244-0.16782 0.04405-0.3313 0.11888-0.47511 0.07232-0.11585 0.14175-0.24276 0.23403-0.34459 0.07083-0.07816 0.16403-0.133 0.2472-0.19609 0.09435-0.05837 0.24075-0.16618 0.3479-0.19191 0.0138-0.0033 0.02819-0.0033 0.04229-0.0049 0.05508 0.0081 0.10174 0.02498 0.1515 0.05069 0.01933 0.01 0.03648 0.02436 0.05674 0.03228 0.0031 0.0012 1.89e-4 -0.0067 2.91e-4 -0.01 0.01749 0.0083 0.03498 0.01661 0.05247 0.02492 0.01043 0.01532 0.22717-0.13222 0.21674-0.14755z"/><path d="m19.66 10.106c-0.0162 0.02362-0.03668 0.04482-0.04861 0.07086-0.01757 0.03837-0.0638 0.22014-0.07079 0.25035-0.03828 0.16538-0.06239 0.33321-0.08716 0.50098-0.03373 0.22846-0.07291 0.4576-0.07292 0.68923-1e-6 0.04705-0.0024 0.09461 0.0051 0.14104 0.0062 0.03864 0.02388 0.07455 0.03583 0.11182 0.03772 0.02554 0.07545 0.05109 0.11317 0.07664-2.23e-4 0.0038 0.05439 0.0071 0.05461 0.0031 0.03676-0.01756 0.07352-0.03512 0.11028-0.05268 0.01331-0.03206 0.03137-0.06255 0.03992-0.0962 0.0109-0.04285 0.01263-0.08754 0.01795-0.13143 0.02686-0.22159 0.03738-0.4449 0.07228-0.66564 0.02712-0.22138 0.05053-0.44131 0.03928-0.66472-2e-3 -0.04112-0.0015-0.08284-0.0099-0.12313-0.0066-0.0315-0.02326-0.06004-0.03489-0.09007 0.0015-0.0116-0.1627-0.03182-0.16413-0.02022z"/><path d="m20.269 10.159c-0.19145 1.5161 0.06404 2.6364 0.2265 0.47938 0.0089-0.05771 0.08704-0.15085 0.12322-0.20066 0.29537-0.1444 0.44857 0.02457 0.50815 0.26482-0.0094 0.4291 0.31224 0.12913 0.38413-0.10069 0.05343-0.08179 0.12932-0.16387 0.22366-0.18025 0.09862-0.01712 0.22552 0.0171 0.28364 0.0986 0.10645 0.14927 0.02647 0.36838 0.0015 0.55001-0.03355 0.24393-0.10623 0.48566-0.20136 0.71071-0.02281 0.05473-0.04881 0.2429-0.04881 0.2429l0.25608 0.07614s0.23978-0.60972 0.27719-0.93152c0.03124-0.2688 0.0905-0.57732-0.04688-0.81046-0.07617-0.12927-0.23211-0.21834-0.38052-0.24049-0.11494-0.01716-0.25347 0.0459-0.33627 0.09208-0.14832 0.08272-0.17973 0.11586-0.26343 0.25778-0.13025 0.0754-0.19812 0.18484 0.05119 0.36479 0.2074-0.28482 0.13843-0.09059 0.07806-0.37822-0.0098-0.02921-0.05842-0.01802-0.07068-0.04627-0.10548-0.12823-0.15708-0.21664-0.3144-0.29546-0.13261-0.06643-0.35858-0.0051-0.49596 0.06592-0.03477 0.01798-0.0525 0.01898-0.08496 0.04086-0.07335 0.08128-0.09235 0.08896-0.13621 0.19294-0.12974 0.44836-0.14217 1.0094-0.17698 1.4322-0.0024 0.01609 0.27079 0.0154 0.27079 0.0154s0.21829-1.5976 0.01461-1.6802c0.0015-0.01007-0.1409-0.03039-0.14234-0.02032z"/></g></svg>
