<svg width="46.951mm" height="42.558mm" version="1.1" viewBox="0 0 46.951 42.558" xmlns="http://www.w3.org/2000/svg">
 <g transform="translate(-5.3419 -3.1389)">
  <path d="m50.581 19.667c0.40347 1.5035 0.60335 3.0616 0.59248 4.6183-0.01208 1.7289-0.28447 3.4558-0.80516 5.1044-2.5753-0.39801-5.1767-0.62654-7.782-0.68363-3.8507-0.08437-7.6988 0.20529-11.55 0.28864-4.5783 0.09911-9.1578-0.09348-13.737-0.07596-3.5089 0.01342-7.0172 0.15026-10.516 0.41018 0.00452-1.7321-0.018269-3.4642-0.068363-5.1956-0.043098-1.4896-0.1064-2.9785-0.1899-4.4664 3.4268 0.3414 6.8715 0.50374 10.315 0.48614 4.3315-0.02214 8.6575-0.32864 12.989-0.3646 4.4111-0.03663 8.8208 0.20738 13.232 0.1823 2.5091-0.01426 5.0178-0.11562 7.5199-0.30383z" fill="#f6d4ca" stroke="#000" stroke-linecap="round" stroke-linejoin="round" stroke-width="1.5" style="paint-order:normal"/>
 </g>
 <g transform="translate(-19.493 -17.339)">
  <path transform="translate(14.151 14.2)" d="m50.74 4.2537c-0.22572 1.4916-0.393 2.9921-0.50133 4.4968-0.12808 1.7791-0.17372 3.5642-0.13673 5.3475-2.6363-0.0098-5.2722-0.09598-7.9035-0.25826-3.8086-0.2349-7.6121-0.62946-11.428-0.62286-4.6289 8e-3 -9.2354 0.60618-13.859 0.83555-3.605 0.17885-7.221 0.13315-10.82-0.13673 0.28854-1.7387 0.46878-3.4953 0.53931-5.2563 0.062047-1.5493 0.039214-3.1019-0.068363-4.6487 3.246 0.30271 6.5088 0.4245 9.7683 0.3646 4.3121-0.079241 8.6154-0.47603 12.928-0.48614 4.3533-0.010197 8.6978 0.37361 13.05 0.48614 2.8106 0.072673 5.6241 0.032117 8.4314-0.12153z" fill="#f6d4ca" stroke="#000" stroke-linecap="round" stroke-linejoin="round" stroke-width="1.5" style="paint-order:normal"/>
 </g>
 <g transform="translate(-5.3419 -3.1389)">
  <path d="m51.492 35.102c0.07173 1.4979 0.06666 2.9994-0.01519 4.4968-0.09801 1.793-0.30615 3.58-0.62286 5.3475-2.679-0.38391-5.3803-0.6123-8.0858-0.68363-4.2745-0.1127-8.5496 0.16629-12.826 0.16711-4.175 7.99e-4 -8.3468-0.2636-12.522-0.25826-3.533 0.0045-7.0658 0.2024-10.577 0.59248 0.2043-1.7665 0.34368-3.5404 0.41777-5.3171 0.058667-1.4069 0.076401-2.8154 0.053172-4.2233 3.0322-0.13094 6.0657-0.23222 9.0999-0.30384 4.5315-0.10695 9.0662-0.1477 13.597 0 4.3509 0.14185 8.6966 0.45745 13.05 0.48614 2.8131 0.01854 5.627-0.08286 8.4314-0.30384z" fill="#f6d4ca" stroke="#000" stroke-linecap="round" stroke-linejoin="round" stroke-width="1.5" style="paint-order:normal"/>
 </g>
</svg>
