<svg width="46.149mm" height="11.223mm" version="1.1" viewBox="0 0 46.149 11.223" xml:space="preserve" xmlns="http://www.w3.org/2000/svg"><g transform="translate(47.718 -3.9788)"><g transform="translate(-47.767 3.4028)"/><g transform="translate(-48.151 -11.799)"><g transform="translate(-5.3419,-3.1389)"><path d="m50.581 19.667c0.40347 1.5035 0.60335 3.0616 0.59248 4.6183-0.01208 1.7289-0.28447 3.4558-0.80516 5.1044-2.5753-0.39801-5.1767-0.62654-7.782-0.68363-3.8507-0.08437-7.6988 0.20529-11.55 0.28864-4.5783 0.09911-9.1578-0.09348-13.737-0.07596-3.5089 0.01342-7.0172 0.15026-10.516 0.41018 0.00452-1.7321-0.018269-3.4642-0.068363-5.1956-0.043098-1.4896-0.1064-2.9785-0.1899-4.4664 3.4268 0.3414 6.8715 0.50374 10.315 0.48614 4.3315-0.02214 8.6575-0.32864 12.989-0.3646 4.4111-0.03663 8.8208 0.20738 13.232 0.1823 2.5091-0.01426 5.0178-0.11562 7.5199-0.30383z" fill="#f6d4ca" stroke="#000" stroke-linecap="round" stroke-linejoin="round" stroke-width="1.5" style="paint-order:normal"/></g></g></g></svg>
