<svg width="46.149mm" height="11.77mm" version="1.1" viewBox="0 0 46.149 11.77" xml:space="preserve" xmlns="http://www.w3.org/2000/svg"><g transform="translate(47.768 -3.4027)"><g transform="translate(-47.767 3.4028)"><g transform="translate(-19.493,-17.339)"><path transform="translate(14.151,14.2)" d="m50.74 4.2537c-0.22572 1.4916-0.393 2.9921-0.50133 4.4968-0.12808 1.7791-0.17372 3.5642-0.13673 5.3475-2.6363-0.0098-5.2722-0.09598-7.9035-0.25826-3.8086-0.2349-7.6121-0.62946-11.428-0.62286-4.6289 8e-3 -9.2354 0.60618-13.859 0.83555-3.605 0.17885-7.221 0.13315-10.82-0.13673 0.28854-1.7387 0.46878-3.4953 0.53931-5.2563 0.062047-1.5493 0.039214-3.1019-0.068363-4.6487 3.246 0.30271 6.5088 0.4245 9.7683 0.3646 4.3121-0.079241 8.6154-0.47603 12.928-0.48614 4.3533-0.010197 8.6978 0.37361 13.05 0.48614 2.8106 0.072673 5.6241 0.032117 8.4314-0.12153z" fill="#f6d4ca" stroke="#000" stroke-linecap="round" stroke-linejoin="round" stroke-width="1.5" style="paint-order:normal"/></g></g></g></svg>
