<svg width="49.97mm" height="24.062mm" version="1.1" viewBox="0 0 49.97 24.062" xml:space="preserve" xmlns="http://www.w3.org/2000/svg"><g transform="matrix(.98772 0 0 1.8877 47.41 -7.3904)"><g transform="translate(-47.767,3.4028)"/></g><path d="m2.9482 1.4689c2.4896 0.45724 5.0169 0.70907 7.5478 0.7521 5.8968 0.10026 11.774-0.93007 17.669-0.74978 2.39 0.073097 4.7693 0.34498 7.156 0.4909 4.0828 0.24962 8.1881 0.12964 12.249-0.35798-0.2203 1.7602-0.42686 3.522-0.61966 5.2854-0.27274 2.4945-0.51752 5.0214-0.16257 7.5056 0.2158 1.5103 0.65113 2.9852 0.81692 4.5018 0.14007 1.2814 0.08505 2.5838-0.16257 3.8488-3.7286-0.58313-7.5144-0.8003-11.285-0.64739-4.0715 0.1651-8.1248 0.76013-12.199 0.72389-3.8382-0.03414-7.6488-0.62805-11.481-0.84328-3.2392-0.18192-6.4937-0.09258-9.718 0.2668 0.20788-1.3322 0.33968-2.6762 0.39454-4.0234 0.08276-2.0323-0.00971-4.0706-0.25004-6.0903-0.21584-1.8138-0.55111-3.6181-0.60145-5.4441-0.048503-1.759 0.1702-3.5251 0.64629-5.2192z" fill="#c0d8e3" stroke="#000" stroke-linecap="round" stroke-linejoin="round" stroke-width=".9268"/></svg>
