<svg width="46.199mm" height="11.623mm" version="1.1" viewBox="0 0 46.199 11.623" xml:space="preserve" xmlns="http://www.w3.org/2000/svg"><g transform="translate(47.715 -3.9121)"><g transform="translate(-47.767 3.4028)"/><g transform="translate(-48.466 -27.023)"><g transform="translate(-5.3419,-3.1389)"><path d="m51.492 35.102c0.07173 1.4979 0.06666 2.9994-0.01519 4.4968-0.09801 1.793-0.30615 3.58-0.62286 5.3475-2.679-0.38391-5.3803-0.6123-8.0858-0.68363-4.2745-0.1127-8.5496 0.16629-12.826 0.16711-4.175 7.99e-4 -8.3468-0.2636-12.522-0.25826-3.533 0.0045-7.0658 0.2024-10.577 0.59248 0.2043-1.7665 0.34368-3.5404 0.41777-5.3171 0.058667-1.4069 0.076401-2.8154 0.053172-4.2233 3.0322-0.13094 6.0657-0.23222 9.0999-0.30384 4.5315-0.10695 9.0662-0.1477 13.597 0 4.3509 0.14185 8.6966 0.45745 13.05 0.48614 2.8131 0.01854 5.627-0.08286 8.4314-0.30384z" fill="#f6d4ca" stroke="#000" stroke-linecap="round" stroke-linejoin="round" stroke-width="1.5" style="paint-order:normal"/></g></g></g></svg>
