<svg width="59.559mm" height="49.568mm" version="1.1" viewBox="0 0 59.559 49.568" xmlns="http://www.w3.org/2000/svg">
 <g transform="translate(-16.294 -14.513)">
  <path d="m29.049 46.878 4.7675 16.418c5.4266-1.1558 11.016-1.5457 16.55-1.1546 2.8058 0.19829 5.5975 0.59635 8.347 1.1902l4.4845-17.03" fill="#efc6f5" stroke="#000" stroke-linecap="round" stroke-linejoin="round" stroke-width="1.5" style="paint-order:normal"/>
 </g>
 <path d="m38.314 32.508c-4.007-0.69188-8.1164-0.61851-12.156-0.15624-2.8757 0.32906-5.7264 0.85327-8.6021 1.1832-2.2245 0.25521-4.4664 0.39388-6.7037 0.30339-1.7165-0.069428-3.4607-0.28288-5.0212-1.0013-1.7604-0.8105-3.2107-2.254-4.0833-3.9844-1.0121-2.0069-1.245-4.3774-0.73657-6.5668 0.4316-1.8587 1.3816-3.5855 2.6714-4.9917 0.87605-0.95513 1.9214-1.7747 3.1205-2.2666 1.1991-0.49191 2.5599-0.64007 3.8054-0.28154 0.99944 0.28771 1.8956 0.89247 2.5875 1.6689 0.26825 0.30102 0.50749 0.62788 0.71334 0.97458-1.2696-1.3156-2.0502-3.0927-2.1603-4.9176-0.07814-1.2957 0.17426-2.6055 0.69276-3.7954 0.66715-1.5311 1.7648-2.8539 3.0643-3.9029s2.7978-1.8331 4.3552-2.4361c5.1678-2.0011 10.985-2.0059 16.342-0.58824 2.2136 0.58575 4.3956 1.4235 6.2252 2.8003 1.8296 1.3768 3.2879 3.3415 3.7202 5.5901 0.20869 1.0854 0.17499 2.2168-0.09794 3.2878l-0.82291 1.0214c0.63941-0.4556 1.3374-0.82895 2.0712-1.1079 1.9922-0.75735 4.2825-0.78624 6.2334 0.07186 1.939 0.85287 3.4529 2.5343 4.3111 4.471 0.85816 1.9367 1.0936 4.1117 0.90429 6.2216-0.16548 1.8445-0.65273 3.6704-1.528 5.3024-0.87524 1.632-2.1468 3.0652-3.7232 4.0371-1.5477 0.95421-3.3679 1.4474-5.1861 1.4575-0.8121 0.0045-1.6245-0.08897-2.4148-0.27568-0.79036-0.18671-1.553-0.47262-2.3185-0.74354-1.7114-0.6056-3.4741-1.0661-5.263-1.375z" fill="#ace7f2" stroke="#000" stroke-linecap="round" stroke-linejoin="round" stroke-width="1.5" style="paint-order:normal"/>
</svg>
