<svg width="59.733mm" height="48.926mm" version="1.1" viewBox="0 0 59.733 48.926" xmlns="http://www.w3.org/2000/svg">
 <g transform="translate(-14.767 -15.156)">
  <path d="m29.049 46.878 4.7675 16.418c4.1704-0.84611 8.4278-1.2625 12.683-1.2405 4.1002 0.02121 8.1981 0.44935 12.214 1.2761l4.4845-17.03" fill="#acf2cf" stroke="#000" stroke-linecap="round" stroke-linejoin="round" stroke-width="1.5" style="paint-order:normal"/>
 </g>
 <path d="m44.74 33.24-11.469-1.2734c-4.9265-0.41575-9.9019-0.249-14.79 0.49568-2.0274 0.30889-4.0514 0.71785-6.1022 0.73308-1.9755 0.01467-3.9494-0.34025-5.8111-1.0013-0.98165-0.34857-1.9382-0.78458-2.796-1.3757-0.85775-0.5911-1.6161-1.3426-2.1381-2.2441-0.59659-1.0304-0.86768-2.2303-0.88337-3.4208s0.21597-2.3745 0.57217-3.5106c0.61414-1.9589 1.6146-3.8144 3.036-5.2956 1.6267-1.6949 3.7618-2.8534 6.0144-3.5204 1.9235-0.56955 4.0079-0.79003 5.9297-0.21485 0.9705 0.29047 1.8808 0.78036 2.6579 1.4303-0.44236-0.60876-0.74737-1.3167-0.88594-2.0564-0.20875-1.1143-0.03827-2.2757 0.33859-3.3449 0.71086-2.0168 2.1451-3.7372 3.8887-4.9751 1.7436-1.238 3.7856-2.0136 5.8774-2.4577 5.1939-1.1028 10.743-0.16533 15.436 2.3182 2.1784 1.1527 4.246 2.6957 5.441 4.8512 1.1048 1.9926 1.3631 4.4753 0.52626 6.5944-0.50266 1.2728-1.3847 2.393-2.5042 3.1802l2.5979-1.2006c1.6419-0.15544 3.3281 0.1918 4.775 0.98336 1.966 1.0755 3.454 2.9629 4.1216 5.102 0.55717 1.7854 0.55345 3.7507-0.06695 5.5151-0.6204 1.7644-1.8638 3.3131-3.4827 4.2497-1.7029 0.98521-3.7985 1.2682-5.7017 0.77003z" fill="#eff2ac" stroke="#000" stroke-linecap="round" stroke-linejoin="round" stroke-width="1.5" style="paint-order:normal"/>
</svg>
