<svg width="61.492mm" height="49.881mm" version="1.1" viewBox="0 0 61.492 49.881" xmlns="http://www.w3.org/2000/svg">
 <g transform="translate(-14.151 -14.2)">
  <path d="m29.049 46.878 4.7675 16.418c5.4266-1.1558 11.016-1.5457 16.55-1.1546 2.8058 0.19829 5.5975 0.59635 8.347 1.1902l4.4845-17.03" fill="#f6d4ca" stroke="#000" stroke-linecap="round" stroke-linejoin="round" stroke-width="1.5" style="paint-order:normal"/>
 </g>
 <path d="m37.577 33.504c-3.1281-0.41669-6.2952-0.49917-9.4481-0.36371-2.8181 0.12108-5.6254 0.41549-8.4309 0.70747-2.2279 0.23187-4.4695 0.46258-6.7037 0.30339-1.7066-0.1216-3.3945-0.47094-5.0212-1.0013-2.109-0.68766-4.1906-1.7389-5.5417-3.4983-0.9949-1.2956-1.5316-2.9114-1.6531-4.5404-0.12152-1.629 0.15787-3.2717 0.67349-4.8218 0.64026-1.9247 1.6593-3.743 3.0968-5.174 1.2828-1.2771 2.9064-2.2349 4.6775-2.6089 1.8313-0.38669 3.8354-0.11333 5.3828 0.93972 0.62043 0.42224 1.1606 0.96205 1.5831 1.5822-0.53593-0.41864-0.97349-0.96238-1.2678-1.5754-0.59094-1.2309-0.5792-2.6982-0.1445-3.9925 0.43471-1.2944 1.2637-2.4284 2.2349-3.3881 2.107-2.0822 4.8749-3.3888 7.7216-4.2079 5.1836-1.4915 10.775-1.4585 15.984-0.057867 1.9951 0.5365 3.9558 1.2788 5.6707 2.431s3.1785 2.739 3.9543 4.6538c0.95712 2.3624 0.7852 5.1388-0.38956 7.4009-0.23875 0.45972-0.5164 0.89923-0.82902 1.3123 0.46672-0.64884 1.1288-1.1552 1.8772-1.4357 0.72474-0.27161 1.5199-0.33131 2.2872-0.23006 0.76732 0.10125 1.5084 0.35949 2.2018 0.70338 1.6986 0.84248 3.1278 2.2151 4.0478 3.873 0.92 1.6579 1.3284 3.5935 1.1676 5.4827-0.2729 3.2062-2.2472 6.2126-5.0688 7.7595-1.618 0.88705-3.4646 1.3067-5.3076 1.3968-1.3978 0.06831-2.7989-0.04709-4.1865-0.22925-2.8706-0.37685-5.6979-1.0387-8.5678-1.421z" fill="#f6c6e5" stroke="#000" stroke-linecap="round" stroke-linejoin="round" stroke-width="1.5" style="paint-order:normal"/>
</svg>
