<svg width="193.9mm" height="43.768mm" version="1.1" viewBox="0 0 193.9 43.768" xml:space="preserve" xmlns="http://www.w3.org/2000/svg"><g transform="translate(62.135 -1.8156)"><path d="m-60.862 15.49c0.16256 5.3654 0.76328 10.722 0.72985 16.089-0.02719 4.3656-0.47489 8.7295-1.3381 13.043 7.7531-0.49656 15.539-0.68583 23.316-0.56688 8.3279 0.12737 16.647 0.60781 24.976 0.56688 7.9404-0.03902 15.873-0.55185 23.812-0.42742 7.5788 0.11879 15.139 0.81812 22.717 0.715 6.7728-0.09215 13.511-0.82469 20.283-0.94024 8.4232-0.14366 16.829 0.668 25.255 0.69403 11.828 0.03655 23.602-1.4748 35.429-1.3646 5.5935 0.05207 11.181 0.46782 16.687 1.2416-0.87462-5.1123-1.2128-10.28-1.01-15.436 0.17183-4.369 0.73101-8.7232 0.97315-13.09 0.21896-3.949 0.17835-7.907-0.12165-11.853-6.2206-0.55683-12.487-0.80049-18.748-0.72895-6.5374 0.074699-13.068 0.49255-19.605 0.40589-8.2563-0.10946-16.464-1.0227-24.714-1.279-6.6644-0.20701-13.341 0.015314-19.989 0.43658-8.105 0.5136-16.231 0.88995-24.356 0.61543l-28.513-0.96358c-8.8169-0.29796-17.615 0.39374-26.407 0.99006-9.6428 0.65401-19.386 0.39771-28.951-0.76161-0.41106 4.1957-0.5532 8.4075-0.42575 12.614z" fill="#fff" stroke="#000" stroke-linecap="round" stroke-linejoin="round" stroke-width="1.3282" style="paint-order:normal"/></g></svg>
