<?xml version="1.0" encoding="UTF-8" standalone="no"?>
<!-- Created with Inkscape (http://www.inkscape.org/) -->

<svg
   width="34.092052mm"
   height="25.364716mm"
   viewBox="0 0 34.092052 25.364715"
   version="1.1"
   id="svg5"
   xml:space="preserve"
   xmlns="http://www.w3.org/2000/svg"
   xmlns:svg="http://www.w3.org/2000/svg"><defs
     id="defs2" /><g
     id="layer2"
     transform="translate(60.790802,8.2378541)" /><g
     id="layer1"
     transform="translate(46.639326,-5.9624399)"><g
       id="g36327"
       transform="translate(-47.76742,3.4027682)"><g
         transform="translate(-5.3419,-3.1389)"
         id="g36305" /><g
         transform="translate(-19.493,-17.339)"
         id="g36309" /><g
         transform="translate(-5.3419,-3.1389)"
         id="g36313" /></g><g
       id="g42271"
       transform="translate(-48.466298,-27.022604)"><g
         transform="translate(-5.3419,-3.1389)"
         id="g42249" /><g
         transform="translate(-19.493,-17.339)"
         id="g42253" /><g
         transform="translate(-5.3419,-3.1389)"
         id="g42257" /></g><path
       style="fill:#000000;fill-opacity:1;stroke:#000000;stroke-width:0.1;stroke-linecap:round;stroke-linejoin:round;stroke-dasharray:none;stroke-opacity:1;paint-order:normal"
       id="path50335"
       d="m -43.865847,9.0514055 c 0.512558,-0.7747912 1.536428,-1.4544153 2.300375,-1.865609 0.893228,-0.4412931 1.840327,-0.3768056 2.777811,-0.2622632 0.368919,0.06543 1.250222,0.3872036 1.563054,0.9007691 0.892741,1.4655799 1.33842,3.8259866 0.237912,5.1427226 -1.137896,1.36147 -3.366466,1.29229 -5.276676,0.701673 -0.266005,-0.250705 -2.004607,-1.168547 -2.03985,-0.374553 0.149601,1.359155 1.98149,1.493888 3.159062,1.716442 0.689384,0.13029 1.418542,-0.05254 2.088569,-0.2606 0.941128,-0.292244 1.700441,-0.576706 2.624965,-1.360042 1.150544,-1.327024 0.820144,-2.775202 0.505332,-4.1238431 -0.258335,-1.1066957 -0.81482,-2.193542 -1.870046,-2.8507088 -0.305773,-0.1659096 -0.637409,-0.2764088 -0.977333,-0.3465884 -1.957112,-0.224021 -3.370203,0.210632 -4.715364,1.3999593 -0.325156,0.3060414 -0.623462,0.6404763 -0.883277,1.0041723 -0.454005,0.7243455 -0.931124,1.5113433 -0.922974,2.3214327 0.523507,-0.594569 0.374961,-0.07963 1.42844,-1.7429635 z" /><path
       style="fill:#000000;fill-opacity:1;stroke:#000000;stroke-width:0.1;stroke-linecap:round;stroke-linejoin:round;stroke-dasharray:none;stroke-opacity:1;paint-order:normal"
       id="path50337"
       d="m -41.035257,17.47681 c 0.184358,0.656704 0.06842,1.362597 0.118965,2.042812 0.03561,0.47917 0.0346,1.033701 0.12982,1.435617 0.161214,0.505855 0.375567,0.883615 0.687286,1.237903 0.368537,0.370092 0.747606,0.573499 1.192256,0.737305 0.618565,0.216774 1.143513,0.269967 1.742538,0.150265 2.72e-4,-0.492043 -0.580062,-0.459493 -0.949072,-0.482313 -0.544002,-0.08295 -1.162976,-0.37657 -1.523756,-0.731807 -0.319521,-0.294246 -0.50093,-0.625071 -0.629978,-1.002209 -0.105305,-0.423135 -0.08313,-0.878801 -0.08475,-1.319557 -0.0017,-0.452807 0.05914,-0.903786 0.07713,-1.356238 -0.02988,-0.700224 -0.992354,-3.28543 -1.101037,-3.469727 -1.859675,-0.807282 -1.464413,-0.445716 -1.109148,0.03474 1.133389,1.532794 1.171799,1.733126 1.449746,2.723205 z" /><path
       style="fill:#000000;fill-opacity:1;stroke:#000000;stroke-width:0.1;stroke-linecap:round;stroke-linejoin:round;stroke-dasharray:none;stroke-opacity:1;paint-order:normal"
       id="path50345"
       d="m -28.510826,17.733429 c -0.270931,-0.112133 -0.656661,-0.246828 -0.876321,-0.13879 -0.83807,0.453487 -1.542902,1.623479 -1.301422,2.54527 0.167991,0.641265 0.856223,1.237679 1.657222,1.09936 0.494236,-0.143713 0.882713,-0.338991 0.962412,-0.820221 0.0088,-0.01225 -0.164546,-0.136057 -0.1733,-0.123803 -2.121311,1.229839 -2.183454,-2.063467 -0.426955,-2.258486 0.02145,0.0112 0.179813,-0.292125 0.158365,-0.303323 z" /><path
       style="fill:#000000;fill-opacity:1;stroke:#000000;stroke-width:0.1;stroke-linecap:round;stroke-linejoin:round;stroke-dasharray:none;stroke-opacity:1;paint-order:normal"
       id="path50347"
       d="m -27.847716,19.704534 c -0.05638,-0.684298 0.01272,-1.681358 -0.191767,-2.050903 -0.03764,-0.189285 -0.434037,-0.164275 -0.494794,0.05597 -0.13324,0.415604 -0.173284,0.662144 -0.156841,0.998734 0.0212,0.433944 0.159586,0.860748 0.326747,1.261765 0.152698,0.36632 0.60855,1.023345 0.60855,1.023345 0,0 -0.05653,-0.859636 -0.0919,-1.288908 z" /><path
       style="fill:#000000;fill-opacity:1;stroke:#000000;stroke-width:0.1;stroke-linecap:round;stroke-linejoin:round;stroke-dasharray:none;stroke-opacity:1;paint-order:normal"
       id="path50349"
       d="m -30.990177,12.454007 c -0.690139,-0.516624 -1.626874,-1.868578 -1.33259,-2.6880786 0.569231,-1.038271 1.753148,-1.5911135 2.749572,-1.9411005 5.70733,-0.1986515 5.717893,3.4790881 3.504918,8.0444811 -0.521499,0.988622 -0.538272,2.053716 -0.537595,2.903573 0.04116,0.664204 0.783941,3.81536 0.783941,3.81536 0,0 0.349206,-1.190832 -0.03208,-2.319246 -0.35321,-1.474813 -0.208108,-2.845678 0.370914,-4.100564 0.525445,-1.08795 1.185014,-2.220235 1.552893,-3.256151 0.171332,-0.540309 0.348615,-1.084486 0.429863,-1.647916 0.251509,-1.5771346 -0.686559,-2.9919583 -1.945193,-3.6383826 -0.214769,-0.1053573 -0.44162,-0.1840547 -0.662431,-0.2760821 -0.681363,-0.1827779 -0.997276,-0.2990059 -1.671783,-0.3748564 -0.526608,-0.059219 -0.900132,-0.052444 -1.421685,-0.00329 -0.753461,0.078853 -1.546786,0.3090455 -2.193975,0.6961454 -0.922123,0.6664836 -1.64537,1.5472991 -1.786666,2.5063557 -0.05962,0.65738 0.577762,1.944663 1.326651,2.5354 0.995494,0.785262 3.688299,0.930191 3.688299,0.930191 -1.134601,-0.288567 -2.063733,-0.630397 -2.823053,-1.185839 z" /><path
       style="fill:#000000;fill-opacity:1;stroke:#000000;stroke-width:0.1;stroke-linecap:round;stroke-linejoin:round;stroke-dasharray:none;stroke-opacity:1;paint-order:normal"
       id="path50351"
       d="m -22.12349,30.38656 c -0.358727,-0.222558 -0.761995,-0.545133 -1.028202,-0.768433 -0.185964,-0.161313 -0.351308,-0.408369 -0.498502,-0.605387 -0.234965,-0.32699 -0.398777,-0.763666 -0.435065,-1.122378 -0.02924,-0.504204 0.181331,-1.037468 0.322277,-1.478613 0.118223,-0.394741 0.300167,-0.766773 0.46818,-1.142031 0.252877,-0.512354 0.409165,-1.093769 0.487633,-1.543514 0.07021,-0.576239 0.0256,-1.022247 -0.06219,-1.579574 -0.168103,-1.431354 -0.766878,-2.28276 -1.119661,-3.514974 0.01937,-0.247398 -0.910916,-1.430178 0.568305,-3.356188 9.047629,-7.7042866 9.350868,6.047903 2.244937,4.459165 -0.09677,-0.03337 -0.846781,-0.41615 -1.186617,0.02143 -0.872301,1.034302 0.04071,1.562969 0.823377,1.762205 0.610971,0.107364 1.241648,0.07052 1.844811,-0.06286 1.200154,-0.328102 2.599086,-0.915263 3.416802,-1.721659 0.453369,-0.481607 0.836612,-1.118173 1.053489,-1.658285 0.363712,-1.389744 0.585657,-2.632534 -0.04202,-3.824932 -0.962022,-2.738884 -3.297909,-3.102792 -5.646751,-2.322529 -0.852115,0.324702 -2.249681,1.561015 -2.831051,2.139744 -2.517764,3.401064 -1.07373,4.48405 -0.178412,6.457496 0.246676,0.639933 0.458944,1.362716 0.584193,1.992912 0.06015,0.389656 0.06764,0.788757 0.0071,1.178584 -0.148431,0.774652 -0.426388,1.404485 -0.6945,2.070422 -0.192648,0.591742 -0.450786,1.22759 -0.50684,1.78949 -0.04459,0.468861 0.06988,0.975242 0.29387,1.358834 0.458158,0.748778 1.2434,1.377653 2.023683,1.471079 z" /><path
       style="fill:#000000;fill-opacity:1;stroke:#000000;stroke-width:0.1;stroke-linecap:round;stroke-linejoin:round;stroke-dasharray:none;stroke-opacity:1;paint-order:normal"
       id="path50353"
       d="m -19.809913,24.980283 c 0.268162,-0.344907 0.249237,-0.676527 0.118555,-1.022726 -0.125047,-0.180502 -0.342769,-0.283539 -0.509035,-0.369317 -0.304272,-0.08311 -0.643907,-0.0284 -0.921092,0.01305 -0.240323,0.06071 -0.503578,0.336928 -0.658966,0.52367 -0.377658,0.507944 -0.667946,1.470787 -0.2765,2.030635 0.570465,0.81588 1.524653,1.543272 2.917791,0.637432 0.873402,-0.754638 0.460683,-1.199225 0.460683,-1.199225 0,0 -0.310441,0.294979 -0.840873,0.713224 -0.565453,0.383945 -1.175021,0.524825 -1.710624,0.30445 -0.412161,-0.169585 -0.684772,-0.731055 -0.770315,-1.092855 0.112589,-2.129152 2.685192,-1.512554 1.479453,-0.587341 -0.398947,0.236096 -0.682631,0.333166 -1.111408,0.307158 -0.19583,1.069345 1.583008,0.393279 1.822331,-0.258155 z" /><path
       style="fill:#000000;fill-opacity:1;stroke:#000000;stroke-width:0.1;stroke-linecap:round;stroke-linejoin:round;stroke-dasharray:none;stroke-opacity:1;paint-order:normal"
       id="path50359"
       d="m -18.213244,23.528827 c 0.191367,-0.02926 0.358284,-0.147092 0.534015,-0.228306 0.423629,-0.195781 0.75744,-0.159619 1.253383,-0.623824 -0.66509,0.113629 -0.970781,0.0475 -1.434022,0.17974 -0.179909,0.05136 -0.332013,0.176599 -0.509849,0.234729 -0.448661,0.146655 -0.822258,-0.09991 -1.387729,0.281868 0.545567,0.05215 1.032799,0.23399 1.544202,0.155793 z" /><path
       style="fill:#000000;fill-opacity:1;stroke:#000000;stroke-width:0.1;stroke-linecap:round;stroke-linejoin:round;stroke-dasharray:none;stroke-opacity:1;paint-order:normal"
       id="path50361"
       d="m -17.92546,21.582242 c -0.264143,-0.06988 -0.49535,0.324072 -0.573155,0.58599 -0.259126,0.872304 0.450557,1.771072 0.533824,2.677232 0.05293,0.575958 0.04507,1.160689 -0.0235,1.734993 -0.07987,0.668882 -0.449179,1.970348 -0.449179,1.970348 0,0 0.607058,-1.487992 0.751832,-2.272688 0.100986,-0.547358 0.06799,-1.111526 0.0758,-1.668067 0.01065,-0.758876 -0.169969,-1.119411 -0.03951,-2.27651 0.03109,-0.275708 -0.0573,-0.598603 -0.276099,-0.751298 -1e-6,-1e-6 -5e-6,0 -5e-6,0 z" /><path
       style="fill:#000000;fill-opacity:1;stroke:#000000;stroke-width:0.1;stroke-linecap:round;stroke-linejoin:round;stroke-dasharray:none;stroke-opacity:1;paint-order:normal"
       id="path50363"
       d="m -15.213162,23.70278 c -0.491356,-0.231136 -1.085264,0.428897 -1.359397,0.897624 -0.267106,0.456711 -0.529988,1.012905 -0.112914,1.583232 0.330998,0.535108 1.001601,0.612442 1.601982,0.06004 -0.699236,0.05316 -1.245704,0.06223 -1.489001,-0.38944 -0.23995,-0.445454 0.06887,-1.028774 0.48725,-1.437578 0.240828,-0.240423 0.524699,-0.249505 0.787797,-0.188111 0.0271,-0.01018 0.117707,0.07034 0.150958,0.09021 0.570042,0.06458 0.120205,-0.528066 -0.06668,-0.615975 z" /><path
       style="fill:#000000;fill-opacity:1;stroke:#000000;stroke-width:0.1;stroke-linecap:round;stroke-linejoin:round;stroke-dasharray:none;stroke-opacity:1;paint-order:normal"
       id="path50365"
       d="m -14.900637,25.309426 c -0.0099,-0.46579 0.24498,-0.921471 -0.178765,-1.16143 v 0 c -0.151903,0.08574 -0.213757,0.183929 -0.270097,0.308435 -0.121301,0.268066 -0.116465,0.574579 -0.114993,0.875179 0.0013,0.258753 0.0558,0.560528 0.232564,0.756257 0.183462,0.20314 0.237264,0.227193 0.756326,0.319822 -0.239496,-0.336423 -0.416675,-0.705805 -0.425035,-1.098263 z" /><path
       style="fill:#000000;fill-opacity:1;stroke:#000000;stroke-width:0.131823;stroke-linecap:round;stroke-linejoin:round;stroke-dasharray:none;stroke-opacity:1;paint-order:normal"
       id="path50369"
       d="m -13.825328,15.312131 c 0.03909,1.023139 0.336637,2.535962 0.460855,3.816007 0.05079,0.523428 0.108962,1.048595 0.116114,1.578059 0.0067,0.49045 -0.02761,0.981369 -0.06799,1.467737 -0.08026,0.966643 -0.250847,1.909832 -0.345608,2.873169 -0.04426,0.44997 -0.128697,0.902519 -0.103996,1.35624 0.03916,0.719454 0.15262,1.131269 0.394889,2.073976 0.02993,-1.643308 -0.04396,-2.395756 0.08505,-3.568359 0.09186,-0.834937 0.360281,-1.599371 0.485577,-2.423309 0.08276,-0.544232 0.147928,-1.098282 0.174578,-1.656506 0.02874,-0.601898 0.0021,-1.207762 -0.01652,-1.810664 -0.03867,-1.257622 -0.005,-2.315569 -0.197411,-3.764358 -0.06773,-0.509915 -0.671167,0.210525 -0.985506,0.05804 -10e-6,-4e-6 -2.7e-5,-4.6e-5 -2.6e-5,-2.9e-5 z" /><path
       style="fill:#000000;fill-opacity:1;stroke:#000000;stroke-width:0.1;stroke-linecap:round;stroke-linejoin:round;stroke-dasharray:none;stroke-opacity:1;paint-order:normal"
       id="path50373"
       d="m -32.712378,17.5292 c -0.702908,0.457335 -0.473044,1.680937 -0.289103,2.499106 0.721943,1.835138 2.1211,3.162393 2.984034,4.598279 1.555957,3.115765 0.668937,4.78021 -2.570438,5.613514 -1.965217,0.360981 -3.688215,0.636805 -5.604951,0.505888 -0.69742,-0.04938 -1.587432,-0.249359 -2.276299,-0.630644 -1.030832,-0.570562 -2.244318,-1.264813 -2.608337,-2.385369 -0.384226,-1.182757 -0.575909,-2.341934 0.747833,-3.655085 1.561214,-1.268669 2.341989,0.01105 2.341989,0.01105 0,0 -0.623162,-1.123909 -1.555815,-0.978476 -1.356378,0.208847 -2.319981,2.140684 -2.233046,3.530423 0.107133,1.712657 1.755921,3.171272 3.272655,3.973886 1.705589,0.902552 4.331955,0.669685 5.764765,0.529304 1.758456,-0.216087 3.624648,-0.56321 4.939051,-1.631203 0.746237,-0.683198 1.358648,-1.779232 1.373986,-2.658956 -0.167826,-1.675178 -1.324647,-3.1448 -2.301632,-4.320453 -0.701237,-0.782772 -1.257964,-1.452648 -1.378888,-2.45677 -0.12072,-0.829327 0.277133,-2.269443 0.277133,-2.269443 0,0 -0.624553,-0.443163 -0.882939,-0.275048 z" /><path
       style="fill:#000000;fill-opacity:1;stroke:#000000;stroke-width:0.1;stroke-linecap:round;stroke-linejoin:round;stroke-dasharray:none;stroke-opacity:1;paint-order:normal"
       id="path50375"
       d="m -46.019759,18.056806 c 0.270422,-0.92151 0.489707,-1.822091 0.751792,-2.69687 0.271654,-0.820108 0.459926,-1.643061 0.534286,-2.47353 0.0606,-0.648155 -0.0654,-1.351056 -0.12436,-1.932329 -0.04648,-0.242325 -0.09299,-0.504454 -0.241024,-0.710669 -0.269513,-0.4045246 -0.828201,-0.3137635 -1.126066,-0.08291 0.644473,1.809149 0.996694,3.402392 0.498282,5.115176 -0.248338,0.925857 -0.563725,1.832223 -0.781877,2.719091 -0.228913,1.392147 0.0195,3.062108 0.886612,3.424424 -0.320086,-1.343733 -0.699508,-2.128181 -0.397645,-3.362379 z" /><path
       style="fill:#000000;fill-opacity:1;stroke:#000000;stroke-width:0.1;stroke-linecap:round;stroke-linejoin:round;stroke-dasharray:none;stroke-opacity:1;paint-order:normal"
       id="path50379"
       d="m -37.773462,17.531301 c -0.56501,-0.117808 -1.038521,0.410631 -1.434818,0.969194 -1.276124,3.379815 2.78264,3.574442 3.297338,0.796537 0.385324,-1.025746 -2.475208,-2.390544 -2.350558,-1.477698 0.04275,0.194738 0.555119,-0.285644 0.591381,-0.08959 0.02795,0.151121 -0.447565,-0.0551 -0.450395,0.09856 -0.0048,0.258548 0.515842,0.08656 0.751223,0.193639 0.731546,0.314194 1.101739,0.8121 0.93301,1.543781 -0.12853,0.525649 -0.59859,0.894235 -1.037076,1.124604 -2.003901,0.876402 -1.988333,-2.318342 -0.613364,-2.676506 0.619043,-0.139706 0.639599,0.08399 0.646268,-0.136058 0.0014,-0.04733 -0.09889,-0.0095 -0.136967,-0.03762 -0.09805,-0.07249 -0.07667,-0.283949 -0.196042,-0.308838 z" /><path
       style="fill:#000000;fill-opacity:1;stroke:#000000;stroke-width:0.1;stroke-linecap:round;stroke-linejoin:round;stroke-dasharray:none;stroke-opacity:1;paint-order:normal"
       id="path50381"
       d="m -34.642281,17.64113 c -0.504001,0.762634 -0.758151,1.503323 -0.789052,2.27217 -0.02522,0.627556 0.849252,1.252651 1.509528,1.286617 0.491011,0.02526 0.861351,-0.502059 1.214805,-0.836551 0.05713,-0.0809 0.163758,-0.154375 0.182854,-0.257862 0.0057,-0.03099 -0.0013,-0.06301 -0.002,-0.09452 -0.01255,-0.03615 -0.02511,-0.0723 -0.03767,-0.108451 0.0043,-0.0061 -0.08164,-0.06729 -0.08597,-0.06121 v 0 c -0.03847,-0.0011 -0.07694,-0.0022 -0.115416,-0.0034 -0.03091,0.0086 -0.06376,0.01191 -0.09272,0.02569 -0.08638,0.04107 -0.129459,0.147459 -0.190896,0.214456 -0.05102,0.05492 -0.108613,0.10217 -0.171228,0.143559 -0.08379,0.06228 -0.161277,0.132493 -0.245953,0.193609 -0.09352,0.05707 -0.193868,0.09818 -0.296696,0.13557 -0.482642,0.17843 -1.020774,-0.26479 -1.081054,-0.597704 -0.08825,-0.728564 0.506125,-1.279087 0.787726,-1.879335 0.103153,-0.219876 -0.452352,-0.635259 -0.586258,-0.432638 z" /></g><g
     id="layer3"
     transform="translate(60.790802,8.2378541)" /></svg>
