<svg width="25.669mm" height="21.025mm" version="1.1" viewBox="0 0 25.669 21.025" xml:space="preserve" xmlns="http://www.w3.org/2000/svg"><g transform="matrix(.98772 0 0 1.8877 46.172 -8.5737)"><g transform="translate(-47.767,3.4028)"/></g><g transform="matrix(.40553 0 0 .40553 .90293 .37919)"><g transform="translate(-16.294,-14.513)"><path d="m29.049 46.878 4.7675 16.418c5.4266-1.1558 11.016-1.5457 16.55-1.1546 2.8058 0.19829 5.5975 0.59635 8.347 1.1902l4.4845-17.03" fill="#efc6f5" stroke="#000" stroke-linecap="round" stroke-linejoin="round" stroke-width="1.5" style="paint-order:normal"/></g><path d="m38.314 32.508c-4.007-0.69188-8.1164-0.61851-12.156-0.15624-2.8757 0.32906-5.7264 0.85327-8.6021 1.1832-2.2245 0.25521-4.4664 0.39388-6.7037 0.30339-1.7165-0.06943-3.4607-0.28288-5.0212-1.0013-1.7604-0.8105-3.2107-2.254-4.0833-3.9844-1.0121-2.0069-1.245-4.3774-0.73657-6.5668 0.4316-1.8587 1.3816-3.5855 2.6714-4.9917 0.87605-0.95513 1.9214-1.7747 3.1205-2.2666 1.1991-0.49191 2.5599-0.64007 3.8054-0.28154 0.99944 0.28771 1.8956 0.89247 2.5875 1.6689 0.26825 0.30102 0.50749 0.62788 0.71334 0.97458-1.2696-1.3156-2.0502-3.0927-2.1603-4.9176-0.07814-1.2957 0.17426-2.6055 0.69276-3.7954 0.66715-1.5311 1.7648-2.8539 3.0643-3.9029s2.7978-1.8331 4.3552-2.4361c5.1678-2.0011 10.985-2.0059 16.342-0.58824 2.2136 0.58575 4.3956 1.4235 6.2252 2.8003s3.2879 3.3415 3.7202 5.5901c0.20869 1.0854 0.17499 2.2168-0.09794 3.2878l-0.82291 1.0214c0.63941-0.4556 1.3374-0.82895 2.0712-1.1079 1.9922-0.75735 4.2825-0.78624 6.2334 0.07186 1.939 0.85287 3.4529 2.5343 4.3111 4.471 0.85816 1.9367 1.0936 4.1117 0.90429 6.2216-0.16548 1.8445-0.65273 3.6704-1.528 5.3024-0.87524 1.632-2.1468 3.0652-3.7232 4.0371-1.5477 0.95421-3.3679 1.4474-5.1861 1.4575-0.8121 0.0045-1.6245-0.08897-2.4148-0.27568-0.79036-0.18671-1.553-0.47262-2.3185-0.74354-1.7114-0.6056-3.4741-1.0661-5.263-1.375z" fill="#ace7f2" stroke="#000" stroke-linecap="round" stroke-linejoin="round" stroke-width="1.5" style="paint-order:normal"/></g><g><path d="m5.9169 8.5742c0.037084 0.0031 0.074048 0.0084 0.11125 0.00934 0.13863 0.0035 0.17646-0.00569 0.31798-0.020196 0.13258-0.013592 0.31232-0.029664 0.44135-0.050885 0.08047-0.013237 0.15989-0.032224 0.23984-0.048335 0.29588-0.045325 0.59102-0.097599 0.88789-0.13633 0.12124-0.015819 0.24331-0.02494 0.36441-0.041778 0.18566-0.025813 0.50774-0.085629 0.69477-0.11931 0.25241-0.045868 0.5025-0.10602 0.75072-0.17065 0.05213-0.013575 0.10448-0.026897 0.1552-0.04506 0.03314-0.011868 0.08203-0.012313 0.09562-0.044777 0.02617-0.062489 0.0054-0.13538 0.0082-0.20307 0.0028-4.181e-4 -0.0032-0.040647-6e-3 -0.04022-0.02919-0.064653-0.0388-0.14245-0.08757-0.19396-0.02533-0.026759-0.0728-0.012946-0.10962-0.014314-0.05468-0.00204-0.10947 0.00134-0.16412 0.00419-0.25846 0.013494-0.51734 0.031055-0.77417 0.063459-0.20659 0.026882-0.50342 0.062683-0.70638 0.10101-0.12315 0.023258-0.2447 0.054308-0.36702 0.081584-0.2955 0.065892-0.59077 0.13294-0.8822 0.21546-0.2183 0.04934-0.42723 0.11102-0.64337 0.16636-0.16426 0.04205-0.13748 0.026094-0.29053 0.076472-0.03234 0.010646-0.063753 0.023944-0.09563 0.035911-0.026523 0.0042 0.032863 0.3793 0.059387 0.37511z"/><path d="m8.1223 8.1846c-0.032488 0.23302 0.00674 0.46919 0.029583 0.70154 0.045372 0.26569 0.079852 0.53283 0.10384 0.80123 0.01203 0.38178 0.022937 0.7636 0.054987 1.1443 0.029262 0.36344 0.06812 0.7256 0.090757 1.0896 0.044407 0.26046 0.00613 0.53733 0.085557 0.79211 0.01292 0.04144 0.034758 0.07955 0.052139 0.11932 0.05858 0.01873 0.11716 0.03744 0.17574 0.05617 0.00116 0.0057 0.081971-0.01078 0.080802-0.01649 0.046812-0.03202 0.093625-0.06405 0.14044-0.09608 0.00524-0.03723 0.013859-0.07413 0.015817-0.11167 0.0047-0.09276-0.00847-0.20325-0.016314-0.29481-0.01818-0.21215-0.011336-0.0983-0.016543-0.30991-0.00134-0.05442-0.00295-0.10882-0.00443-0.16325-0.021908-0.36251-0.050936-0.72448-0.07292-1.0869-0.017246-0.38664-0.05083-0.77314-0.10321-1.1566-0.032384-0.27085-0.08113-0.53933-0.11424-0.81008-0.038728-0.22527-0.05598-0.45487-0.11911-0.67525-0.0011813-0.027073-0.38408-0.010196-0.38289 0.016876z"/><path d="m9.1666 10.141c-0.00636 0.19535 0.12047 0.5491 0.19161 0.72948 0.18043 0.54389 0.34235 0.9728 0.55704 1.4501 0.02769 0.07068 0.06188 0.14042 0.11659 0.19415 0.1015 0.11703 0.26566 0.1134 0.33531 0.01601 0.05327-0.07003 0.12913-0.19708 0.16404-0.2774 0.17251-0.28086 0.10306-0.50811 0.18077-0.23189 0.13777 0.4115 0.45567 0.82821 0.64142 0.57248 0.41187-0.56708 0.70801-2.2978 0.67444-2.4139 0 0-0.30926 0.06622-0.33601 0.16341-0.16179 0.58447-0.2118 1.1924-0.4853 1.6798-0.25402-0.11336-0.25218-0.47621-0.33348-0.7347-0.03356-0.11046-0.24092-0.18905-0.32548-0.0924-0.14252 0.29564-0.19749 0.42638-0.31777 0.71947-0.18513-0.21047-0.36603-0.8542-0.4969-1.3074-0.03721-0.17175-0.07269-0.34615-0.13833-0.50952-0.0874-0.02282-0.4303 0.01477-0.42789 0.04218z"/><path d="m12.416 10.122c-0.1708 0.86896-0.18795 1.7165-0.01795 2.4643 0.15503 0.0036 0.2983-0.01895 0.46031-0.04085-0.05983-0.39341-0.06234-1.6647 0.0025-2.3506 0.0051-0.03147-0.43975-0.10436-0.44491-0.07289z"/><path d="m12.301 7.7603c-0.0145 0.16837 0.0018 0.33967 0.03522 0.50507 0.31578 0.53639 0.35857 0.25984 0.48786-0.00706 0.02013-0.17415 0.01016-0.35491-0.0425-0.52274-0.0018-0.03398-0.4823-0.00925-0.48055 0.024735z"/><path d="m13.844 7.7376c0.0021 0.77805 0.01337 1.5327-0.04199 2.288-0.06442 0.84731-0.12661 1.6713-0.1766 2.497 0.16884 0.10065 0.22606 0.03948 0.3942 0.0266 0.09054-0.82644 0.14565-1.6702 0.21922-2.4818 0.05525-0.78943 0.09154-1.5869 0.01112-2.3464-7.15e-4 -0.021976-0.40648-0.00534-0.40569 0.016639z"/><path d="m14.827 9.9805c0.0036-0.20983 0.09214-0.36138-0.0062-0.49538-0.07288-0.00749-0.39349 0.12627-0.46559 0.12927-0.12135 0.030634-0.28644 0.0916-0.4081 0.12095-0.22224 0.044681-0.37409 0.13094-0.62133 0.10982-0.03517 0.011661-0.08968 0.46322-0.0545 0.45156 0.57232 0.07698 1.084-0.1616 1.5558-0.31622z"/><path d="m15.585 7.6089c-0.17731 1.7556-0.24088 3.1834-0.43273 4.8399-0.02106 0.10576-0.03689 0.21248-0.03306 0.3204 0.1729 0.11954 0.2805 0.05291 0.45518 0.0094 0.01075-0.08583 0.01691-0.17216 0.03621-0.25675 0.11821-1.7005 0.29343-3.3032 0.38397-4.9391 0.0025-0.026334-0.24804-0.068571-0.25056-0.042231z"/><path d="m15.62 10.624c0.1524-0.03191 0.29885-0.08476 0.44414-0.1397 0.1095-0.0426 0.21591-0.09432 0.32825-0.12923 0.04684-0.02433 0.2023-0.11129 0.23888-0.14376 0.08267-0.23555-0.0044-0.11773-0.08138-0.4114-0.3281 0.075946-1.4655 0.43238-1.7654 0.51433-0.13614 0.25707 0.02166 0.47961 0.8355 0.30976z"/><path d="m16.425 11.738c0.2117 0.05503 0.3501-0.0015 0.55294-0.07183 0.12724-0.04883 0.26556-0.12103 0.36807-0.20809 0.27795-0.14727 0.28008-0.26182 0.25856-0.52276-0.0017-0.10485-0.09953-0.32205-0.17072-0.39201-0.17104-0.14348-0.1804-0.11425-0.37212-0.1696-0.27958 0.02469-0.42136 0.19826-0.58433 0.37893-0.27862 0.33326-0.32356 0.59558-0.44089 0.98791-0.03183 0.12623-0.01386 0.42332 0.0091 0.5499 0.03288 0.12263 0.08218 0.29042 0.18713 0.38875 0.19256 0.18042 0.31193 0.25285 0.73413 0.29621 0.1395-0.0026 0.27651-0.0259 0.41119-0.06088 0.12069-0.03876 0.239-0.08634 0.35128-0.1454 0.03197-0.01682 0.06616-0.03076 0.09442-0.05325 0.0354-0.02815 0.06313-0.06482 0.09469-0.09721 0.0068-0.06308 0.01343-0.12617 0.02004-0.18929 0.0087-0.0065-0.08446-0.12642-0.09293-0.11986-0.3293 0.05821-0.42531 0.19088-0.73256 0.25387-0.25142 0.01073-0.43204 0.02954-0.66884-0.35015-0.0354-0.06389-0.0233-0.12747-0.01256-0.19793 0.01678-0.09464 0.05127-0.18329 0.07695-0.27566 0.02868-0.0891 0.04994-0.18 0.07579-0.26993 0.02549-0.08394 0.05506-0.16741 0.09809-0.24412 0.04297-0.0745 0.09168-0.1453 0.13455-0.21986 0.05105-0.0588 0.11241-0.10781 0.16767-0.16242 0.02466-0.0234 0.04922-0.05689 0.08629-0.04381 0.18158 0.12908 0.10823 0.26591 0.0425 0.33631-0.07495 0.04781-0.15488 0.08965-0.24144 0.11175-0.15996 0.03437-0.32299 0.03684-0.4843 0.06139-0.03033 0.0026 0.0069 0.4317 0.03719 0.42907z"/><path d="m18.313 10.493c-0.08569 0.26736-0.0458 0.36949-0.0909 0.61882-0.0086 0.10383-0.02794 0.26571-0.04265 0.36891-0.01642 0.11038-0.03412 0.22037-0.04756 0.33123-0.01625 0.121-0.02732 0.2424-0.03491 0.36421-0.0064 0.09577-0.05737 0.30121-0.06682 0.39675-0.06331 0.86887 0.33434 0.42704 0.41782-0.13759 0.01646-0.11227-0.0093-0.28505-6.9e-4 -0.39819 0.01964-0.18002 0.06307-0.35332 0.10914-0.51397 0.14108-0.26654 0.2347-0.39802 0.43729-0.44523 0.15605-0.03636 0.32038-0.0418 0.45373 0.15872 0.03735 0.03862 0.22403 0.02869 0.33702-0.07482-0.06669-0.20659-0.17327-0.31626-0.3196-0.40817-0.07985-0.05015-0.1821-0.06264-0.27636-0.06037-0.16182 0.0039-0.32602 0.05028-0.46886 0.12642-0.07435 0.03965-0.13966 0.11685-0.19068 0.1659-0.06875 0.07024-0.06224 0.16931-0.10101 0.25986-0.04045 0.07649-0.07023 0.15759-0.09408 0.24075-0.03385 0.08755-0.06919 0.17509-0.07568 0.27004-0.02328 0.09514-0.0504 0.1896-0.05966 0.28757-0.01245 0.10437-0.01933 0.20955-0.0434 0.31215-0.13923 0.45724-0.14674 0.60758-0.07801 0.6684 0.11401 0.24316 0.35413-0.14359 0.33719-0.48716 0.01499-0.09398 0.03885-0.18582 0.05624-0.27937 0.04473-0.23625 0.07107-0.46862 0.09894-0.69023 0.01073-0.10215 0.0097-0.26036 0.02575-0.36176 0.04347-0.21816 0.08597-0.43608 0.06781-0.61851-0.01201-0.12033-0.27552-0.18957-0.35027-0.09451-2.5e-5 3e-5 7e-5 6.6e-5 5.7e-5 1.05e-4z"/></g></svg>
