<svg width="24.636mm" height="19.984mm" version="1.1" viewBox="0 0 24.636 19.984" xml:space="preserve" xmlns="http://www.w3.org/2000/svg"><g transform="matrix(.98772 0 0 1.8877 45.675 -9.1708)"><g transform="translate(-47.767,3.4028)"/></g><g transform="matrix(.40064 0 0 .40064 1.1589e-5 -.00018747)"><g transform="translate(-14.151,-14.2)"><path d="m29.049 46.878 4.7675 16.418c5.4266-1.1558 11.016-1.5457 16.55-1.1546 2.8058 0.19829 5.5975 0.59635 8.347 1.1902l4.4845-17.03" fill="#f6d4ca" stroke="#000" stroke-linecap="round" stroke-linejoin="round" stroke-width="1.5" style="paint-order:normal"/></g><path d="m37.577 33.504c-3.1281-0.41669-6.2952-0.49917-9.4481-0.36371-2.8181 0.12108-5.6254 0.41549-8.4309 0.70747-2.2279 0.23187-4.4695 0.46258-6.7037 0.30339-1.7066-0.1216-3.3945-0.47094-5.0212-1.0013-2.109-0.68766-4.1906-1.7389-5.5417-3.4983-0.9949-1.2956-1.5316-2.9114-1.6531-4.5404-0.12152-1.629 0.15787-3.2717 0.67349-4.8218 0.64026-1.9247 1.6593-3.743 3.0968-5.174 1.2828-1.2771 2.9064-2.2349 4.6775-2.6089 1.8313-0.38669 3.8354-0.11333 5.3828 0.93972 0.62043 0.42224 1.1606 0.96205 1.5831 1.5822-0.53593-0.41864-0.97349-0.96238-1.2678-1.5754-0.59094-1.2309-0.5792-2.6982-0.1445-3.9925 0.43471-1.2944 1.2637-2.4284 2.2349-3.3881 2.107-2.0822 4.8749-3.3888 7.7216-4.2079 5.1836-1.4915 10.775-1.4585 15.984-0.057867 1.9951 0.5365 3.9558 1.2788 5.6707 2.431s3.1785 2.739 3.9543 4.6538c0.95712 2.3624 0.7852 5.1388-0.38956 7.4009-0.23875 0.45972-0.5164 0.89923-0.82902 1.3123 0.46672-0.64884 1.1288-1.1552 1.8772-1.4357 0.72474-0.27161 1.5199-0.33131 2.2872-0.23006 0.76732 0.10125 1.5084 0.35949 2.2018 0.70338 1.6986 0.84248 3.1278 2.2151 4.0478 3.873s1.3284 3.5935 1.1676 5.4827c-0.2729 3.2062-2.2472 6.2126-5.0688 7.7595-1.618 0.88705-3.4646 1.3067-5.3076 1.3968-1.3978 0.06831-2.7989-0.04709-4.1865-0.22925-2.8706-0.37685-5.6979-1.0387-8.5678-1.421z" fill="#f6c6e5" stroke="#000" stroke-linecap="round" stroke-linejoin="round" stroke-width="1.5" style="paint-order:normal"/></g><g><path d="m5.5138 7.5653c0.57196 0.87798 1.119 1.4524 1.7478 2.1185 0.076875 0.08144 0.32347-0.15414 0.24299-0.23203-0.4531-0.43852-1.1392-1.199-1.7549-2.0365-0.037869-0.051503-0.2708 0.09639-0.23591 0.14995z"/><path d="m7.6692 7.4311c-0.13242 1.2718-0.61937 3.1694-1.3103 4.7664-0.043149 0.09972 0.27449 0.16304 0.31959 0.06418 0.70371-1.5423 1.2687-3.4072 1.2544-4.8098-7.813e-4 -0.076507-0.25575-0.096854-0.26367-0.020754z"/><path d="m9.0427 9.3678c-0.10143-0.046016-0.22037-0.049946-0.32722-0.026337-0.13484 0.029795-0.26101 0.10838-0.36051 0.20414-0.17503 0.16846-0.31315 0.38734-0.3831 0.61998-0.070747 0.23527-0.10272 0.50442-0.022639 0.73667 0.081041 0.23504 0.27262 0.43214 0.47751 0.57297 0.15227 0.10466 0.35643 0.14979 0.52471 0.17874 0.35233 0.04557 0.65291-0.15377 0.89906-0.36325 0.16891-0.14375 0.26192-0.36156 0.34472-0.56915 0.04971-0.18879 0.05834-0.37536 0.02223-0.55795-0.0292-0.14767-0.09835-0.28977-0.18838-0.41041-0.10538-0.14121-0.23278-0.28628-0.39777-0.34812-0.24903-0.093335-0.82017-0.099201-0.79784 0.0014-0.00882 0.0034 0.039597 0.12809 0.048412 0.12466 0.1896 0.09708 0.31432 0.06527 0.45357 0.14052 0.15489 0.0837 0.30503 0.19302 0.40722 0.33639 0.06581 0.09233 0.12059 0.2052 0.11924 0.31858-0.0031 0.25809-0.11438 0.5281-0.28858 0.71855-0.11993 0.13111-0.29821 0.22438-0.47504 0.24187-0.18408 0.01821-0.38307-0.04346-0.53427-0.15002-0.11345-0.07996-0.19592-0.20835-0.24082-0.33968-0.057453-0.16805-0.070389-0.36132-0.02245-0.53232 0.058258-0.20781 0.22003-0.3738 0.35958-0.53844 0.113-0.13332 0.81903-0.02086 0.3824-0.3587z"/><path d="m10.973 9.3121c-0.22093 0.21733-0.339 0.43471-0.43599 0.68842-0.12331 0.32259-0.24283 0.6841-0.17088 1.0219 0.04771 0.22396 0.17024 0.43369 0.37959 0.57256 0.23968 0.12824 0.50219 0.15805 0.7476 0.10283 0.24391-0.05488 0.4517-0.23031 0.62763-0.41061 0.03529-0.05064 0.06875-0.10257 0.10268-0.15415 0.19869-0.30821 0.05899-0.65092-0.18502-0.42155-0.12845 0.3249-0.3495 0.52439-0.62946 0.59443-0.20847 0.05215-0.48289-0.0059-0.62193-0.16978-0.10872-0.12812-0.06817-0.33418-0.05185-0.50141 0.02032-0.20815 0.10866-0.40473 0.184-0.59983 0.07449-0.19288 0.17459-0.39211 0.26389-0.56136 0.01142-0.01487-0.19882-0.17634-0.21024-0.16147z"/><path d="m12.012 9.4649c-0.0064 0.01632-0.01455 0.03207-0.01927 0.04896-0.03596 0.31707-0.01333 0.6225 0.0072 0.93276 0.02031 0.30742 0.06492 0.6185 0.11454 0.91716 0.01495 0.07718 0.03986 0.15185 0.07239 0.2233 0.19623 0.10382 0.21071 0.04078 0.31437-0.0871-0.04897-0.11807-0.05781-0.23696-0.0773-0.34959-0.02753-0.24918-0.06026-0.47448-0.08172-0.71261-0.0288-0.31956-0.01717-0.65499-0.06307-0.96051 8.73e-4 -0.01888-0.26619-0.03124-0.26707-0.01236z"/><path d="m12.755 7.1758c-0.05511 0.29767-0.0225 0.44272-0.02336 0.66428-0.0014 0.35276 0.02545 0.70515 0.02894 1.0579-0.0047 0.90557-0.09481 1.8819-0.12613 2.6724 0.05384 0.07002 0.15451 0.13094 0.27025 0.04654 0.02068-0.94067 0.1328-1.8543 0.12948-2.715-0.0052-0.40131-0.01923-0.80246-0.03227-1.2036-0.0055-0.16815 0.02022-0.37104-0.01926-0.50433-3.71e-4 -0.10053-0.22785-0.025156-0.22748-0.018166z"/><path d="m11.931 9.086c0.34805-0.054399 0.7463-0.127 1.0287-0.18267 0.29434-0.049727 0.53126-0.10798 0.81746-0.17245 0.05383-0.13598 0.01198-0.16758-0.04254-0.29405-0.33438 0.02293-0.58135 0.086313-0.84248 0.12923-0.34823 0.080792-0.70997 0.15736-1.0397 0.20998 0.01515 0.095146 0.02793 0.22798 0.07852 0.30997z"/><path d="m13.669 9.4097c-0.10873 0.14653-0.14496 0.29997-0.18611 0.46025-0.0492 0.19164-0.05686 0.392-0.07011 0.58941-0.01301 0.19389-0.03177 0.39297-0.0091 0.58291 0.0308 0.143 0.09301 0.27121 0.14804 0.39428 0.03432 0.0675 0.12666 0.16814 0.21732 0.21432 0.1639 0.08347 0.36131 0.10728 0.54442 0.08991 0.08807-0.0084 0.17162-0.04891 0.24903-0.09171 0.17451-0.0965 0.33078-0.23378 0.47358-0.36554 0.16844-0.21032 0.1333-0.23681-0.02046-0.36765-0.16327 0.0051-0.17003 0.12733-0.25943 0.1845-0.15269 0.09764-0.29813 0.21861-0.47193 0.27-0.07393 0.02186-0.16042 0.04399-0.23092 0.01279-0.15713-0.06952-0.2222-0.12171-0.32506-0.40006-0.04939-0.21729-0.0058-0.43848 0.01979-0.65561 0.03252-0.27575 0.10615-0.55207 0.16923-0.81561 0.0072-0.01755-0.24102-0.11986-0.24826-0.1023z"/><path d="m14.959 9.5186c-0.17015 0.77639-0.06428 1.4706 0.12619 2.1293 0.12577 0.13106 0.23901 0.08962 0.34362-0.01438-0.2493-0.70066-0.25969-1.3203-0.1929-2.0707 0.0031-0.01958-0.27377-0.06381-0.27689-0.04423z"/><path d="m15.739 7.5089c0.07893 0.77806 0.10725 1.9661 0.08737 2.7092-0.02576 0.51415-0.11743 1.0079-0.14198 1.4546-0.0044 0.07982 0.26649 0.1012 0.27392 0.02161 0.03751-0.40152 0.16277-1.032 0.15743-1.4758 0.01168-0.84717-0.04428-1.9103-0.06449-2.711-0.09834-0.072378-0.14715-0.11708-0.31224 0.00142z"/><path d="m16.14 10.011c0.16912-0.12551 0.3636-0.25665 0.56811-0.23821 0.19378 0.01747 0.37396 0.16162 0.48926 0.31835 0.09847 0.13385 0.15338 0.31467 0.13515 0.47983-0.03781 0.34249-0.17543 0.77051-0.49054 0.9099-0.27058 0.11969-0.59359-0.13296-0.86144-0.21392-0.1512 0.04265-0.07203 0.20358-0.08209 0.28027 0.20091 0.17704 0.46355 0.26759 0.70837 0.30455 0.16146 0.02117 0.28194-0.02774 0.41202-0.07909 0.09792-0.03865 0.19436-0.09235 0.26719-0.16836 0.14354-0.14982 0.24771-0.34213 0.309-0.54036 0.07306-0.23633 0.1107-0.49771 0.05947-0.73972-0.04504-0.21278-0.15316-0.42415-0.31136-0.57341-0.17585-0.16591-0.39565-0.26779-0.65644-0.30845-0.29806-0.0046-0.52535 0.09741-0.71811 0.28914-0.04147 0.44401 0.07706 0.47774 0.17141 0.27947z"/><path d="m18.377 10.945c0.23033 0.0425 0.4533 0.061 0.67885 0.03869 0.13404-0.01326 0.26799-0.04695 0.39111-0.10157 0.0724-0.03211 0.1425-0.07451 0.19862-0.13039 0.06187-0.06162 0.12465-0.13339 0.14468-0.21838 0.04481-0.1902 0.0039-0.40157-0.07153-0.58185-0.06152-0.14713-0.16827-0.29253-0.29703-0.37505-0.27852-0.15981-0.52087-0.13543-0.80611-0.04328-0.22903 0.11682-0.37114 0.31577-0.492 0.52212-0.13811 0.2358-0.20553 0.51306-0.24541 0.7822-0.07098 0.43607-0.01108 0.76594 0.27318 1.0512 0.36802 0.25905 0.71494 0.27796 1.0715 0.2061 0.28415-0.05727 0.56076-0.32656 0.72364-0.4822-0.08057-0.16616-0.14312-0.18369-0.27108-0.2393-0.1247 0.0745-0.21063 0.2051-0.33554 0.28009-0.08898 0.05343-0.18526 0.10624-0.28848 0.11718-0.2082 0.02207-0.44903 0.01377-0.61854-0.10911-0.11946-0.08659-0.16936-0.21251-0.20868-0.39035-0.02104-0.39194 0.02563-0.72545 0.18644-1.0381 0.08446-0.1642 0.21365-0.33205 0.3866-0.39676 0.15834-0.05924 0.37614-0.06719 0.50544 0.04172 0.1567 0.13199 0.26129 0.42056 0.15393 0.59506-0.13749 0.22349-0.49921 0.17553-0.76912 0.16764-0.11201-0.0054-0.2345-0.01894-0.33501-0.02384-0.02321 0.0017 0.0013 0.32991 0.02454 0.32818z"/></g></svg>
